<?xml version="1.0" encoding="utf-8"?>
<!-- Generator: Adobe Illustrator 22.0.1, SVG Export Plug-In . SVG Version: 6.00 Build 0)  -->
<svg version="1.1" xmlns="http://www.w3.org/2000/svg" xmlns:xlink="http://www.w3.org/1999/xlink" x="0px" y="0px"
	 viewBox="0 0 1080 648" enable-background="new 0 0 1080 648" xml:space="preserve">
<g id="Layer_1">
	<rect fill="none" stroke="#010101" stroke-width="0.25" stroke-miterlimit="10" width="540" height="648"/>
	<rect x="540" fill="none" stroke="#010101" stroke-width="0.25" stroke-miterlimit="10" width="540" height="648"/>
</g>
<g id="Layer_2">
	<rect x="691.3" y="205.8" fill="none" width="237.3" height="236.3"/>
	<text transform="matrix(1 0 0 1 691.3309 214.7953)"><tspan x="0" y="0" font-family="'Arial-Black'" font-size="12.5px" letter-spacing="28">PROVOK</tspan><tspan x="228.3" y="0" font-family="'Arial-Black'" font-size="12.5px">E</tspan><tspan x="0" y="15" fill="#010101" font-family="'Arial-Black'" font-size="12.5px">To</tspan><tspan x="17.4" y="15" fill="#010101" font-family="'Arial-Black'" font-size="12.5px"> </tspan><tspan x="21" y="15" fill="#010101" font-family="'Arial-Black'" font-size="12.5px">design</tspan><tspan x="66.2" y="15" fill="#010101" font-family="'Arial-Black'" font-size="12.5px"> </tspan><tspan x="69.9" y="15" fill="#010101" font-family="'Arial-Black'" font-size="12.5px">is</tspan><tspan x="81.7" y="15" fill="#010101" font-family="'Arial-Black'" font-size="12.5px"> </tspan><tspan x="85.3" y="15" fill="#010101" font-family="'Arial-Black'" font-size="12.5px">to</tspan><tspan x="99.2" y="15" fill="#010101" font-family="'Arial-Black'" font-size="12.5px"> </tspan><tspan x="102.9" y="15" fill="#010101" font-family="'Arial-Black'" font-size="12.5px">stimulate</tspan><tspan x="167.5" y="15" fill="#010101" font-family="'Arial-Black'" font-size="12.5px"> </tspan><tspan x="171.1" y="15" fill="#010101" font-family="'Arial-Black'" font-size="12.5px">a</tspan><tspan x="179.5" y="15" fill="#010101" font-family="'Arial-Black'" font-size="12.5px"> </tspan><tspan x="183.1" y="15" fill="#010101" font-family="'Arial-Black'" font-size="12.5px">change, </tspan><tspan x="0" y="30" fill="#010101" font-family="'Arial-Black'" font-size="12.5px">whether</tspan><tspan x="56.2" y="30" fill="#010101" font-family="'Arial-Black'" font-size="12.5px" letter-spacing="1"> </tspan><tspan x="62.3" y="30" fill="#010101" font-family="'Arial-Black'" font-size="12.5px">this</tspan><tspan x="88" y="30" fill="#010101" font-family="'Arial-Black'" font-size="12.5px" letter-spacing="1"> </tspan><tspan x="94.1" y="30" fill="#010101" font-family="'Arial-Black'" font-size="12.5px">change</tspan><tspan x="144.1" y="30" fill="#010101" font-family="'Arial-Black'" font-size="12.5px" letter-spacing="1"> </tspan><tspan x="150.2" y="30" fill="#010101" font-family="'Arial-Black'" font-size="12.5px">is</tspan><tspan x="162" y="30" fill="#010101" font-family="'Arial-Black'" font-size="12.5px" letter-spacing="1"> </tspan><tspan x="168.1" y="30" fill="#010101" font-family="'Arial-Black'" font-size="12.5px">in</tspan><tspan x="180.6" y="30" fill="#010101" font-family="'Arial-Black'" font-size="12.5px" letter-spacing="1"> </tspan><tspan x="186.6" y="30" fill="#010101" font-family="'Arial-Black'" font-size="12.5px">feeling, </tspan><tspan x="0" y="45" fill="#010101" font-family="'Arial-Black'" font-size="12.5px">thought,</tspan><tspan x="56.9" y="45" fill="#010101" font-family="'Arial-Black'" font-size="12.5px" letter-spacing="13"> </tspan><tspan x="74.9" y="45" fill="#010101" font-family="'Arial-Black'" font-size="12.5px">and/or</tspan><tspan x="117.3" y="45" fill="#010101" font-family="'Arial-Black'" font-size="12.5px" letter-spacing="13"> </tspan><tspan x="135.2" y="45" fill="#010101" font-family="'Arial-Black'" font-size="12.5px">understanding. </tspan><tspan x="0" y="60" fill="#010101" font-family="'Arial-Black'" font-size="12.5px">Effective</tspan><tspan x="61.1" y="60" fill="#010101" font-family="'Arial-Black'" font-size="12.5px" letter-spacing="11"> </tspan><tspan x="76.6" y="60" fill="#010101" font-family="'Arial-Black'" font-size="12.5px">design</tspan><tspan x="121.7" y="60" fill="#010101" font-family="'Arial-Black'" font-size="12.5px" letter-spacing="11"> </tspan><tspan x="137.2" y="60" fill="#010101" font-family="'Arial-Black'" font-size="12.5px">improves</tspan><tspan x="199.7" y="60" fill="#010101" font-family="'Arial-Black'" font-size="12.5px" letter-spacing="11"> </tspan><tspan x="215.1" y="60" fill="#010101" font-family="'Arial-Black'" font-size="12.5px">the </tspan><tspan x="0" y="75" fill="#010101" font-family="'Arial-Black'" font-size="12.5px">human</tspan><tspan x="45.8" y="75" fill="#010101" font-family="'Arial-Black'" font-size="12.5px" letter-spacing="6"> </tspan><tspan x="56.9" y="75" fill="#010101" font-family="'Arial-Black'" font-size="12.5px">experience,</tspan><tspan x="137.5" y="75" fill="#010101" font-family="'Arial-Black'" font-size="12.5px" letter-spacing="6"> </tspan><tspan x="148.5" y="75" fill="#010101" font-family="'Arial-Black'" font-size="12.5px">not</tspan><tspan x="170.8" y="75" fill="#010101" font-family="'Arial-Black'" font-size="12.5px" letter-spacing="6"> </tspan><tspan x="181.8" y="75" fill="#010101" font-family="'Arial-Black'" font-size="12.5px">only</tspan><tspan x="210.3" y="75" fill="#010101" font-family="'Arial-Black'" font-size="12.5px" letter-spacing="6"> </tspan><tspan x="221.4" y="75" fill="#010101" font-family="'Arial-Black'" font-size="12.5px">by </tspan><tspan x="0" y="90" fill="#010101" font-family="'Arial-Black'" font-size="12.5px">being</tspan><tspan x="37.5" y="90" fill="#010101" font-family="'Arial-Black'" font-size="12.5px" letter-spacing="6"> </tspan><tspan x="48.2" y="90" fill="#010101" font-family="'Arial-Black'" font-size="12.5px">visually</tspan><tspan x="100.3" y="90" fill="#010101" font-family="'Arial-Black'" font-size="12.5px" letter-spacing="6"> </tspan><tspan x="111" y="90" fill="#010101" font-family="'Arial-Black'" font-size="12.5px">appealing</tspan><tspan x="177.7" y="90" fill="#010101" font-family="'Arial-Black'" font-size="12.5px" letter-spacing="6"> </tspan><tspan x="188.4" y="90" fill="#010101" font-family="'Arial-Black'" font-size="12.5px">but</tspan><tspan x="210.6" y="90" fill="#010101" font-family="'Arial-Black'" font-size="12.5px" letter-spacing="6"> </tspan><tspan x="221.4" y="90" fill="#010101" font-family="'Arial-Black'" font-size="12.5px">by </tspan><tspan x="0" y="105" fill="#010101" font-family="'Arial-Black'" font-size="12.5px">being</tspan><tspan x="37.5" y="105" fill="#010101" font-family="'Arial-Black'" font-size="12.5px" letter-spacing="74"> </tspan><tspan x="115.9" y="105" fill="#010101" font-family="'Arial-Black'" font-size="12.5px">able</tspan><tspan x="145.1" y="105" fill="#010101" font-family="'Arial-Black'" font-size="12.5px" letter-spacing="74"> </tspan><tspan x="223.5" y="105" fill="#010101" font-family="'Arial-Black'" font-size="12.5px">to</tspan><tspan x="0" y="120" fill="#010101" font-family="'Arial-Black'" font-size="12.5px" letter-spacing="14">communicat</tspan><tspan x="229" y="120" fill="#010101" font-family="'Arial-Black'" font-size="12.5px">e</tspan><tspan x="0" y="135" fill="#010101" font-family="'Arial-Black'" font-size="12.5px">without</tspan><tspan x="52.1" y="135" fill="#010101" font-family="'Arial-Black'" font-size="12.5px" letter-spacing="1"> </tspan><tspan x="57.9" y="135" fill="#010101" font-family="'Arial-Black'" font-size="12.5px">the</tspan><tspan x="80.1" y="135" fill="#010101" font-family="'Arial-Black'" font-size="12.5px" letter-spacing="1"> </tspan><tspan x="85.9" y="135" fill="#010101" font-family="'Arial-Black'" font-size="12.5px">use</tspan><tspan x="110.2" y="135" fill="#010101" font-family="'Arial-Black'" font-size="12.5px" letter-spacing="1"> </tspan><tspan x="116" y="135" fill="#010101" font-family="'Arial-Black'" font-size="12.5px">of</tspan><tspan x="129.2" y="135" fill="#010101" font-family="'Arial-Black'" font-size="12.5px" letter-spacing="1"> </tspan><tspan x="135" y="135" fill="#010101" font-family="'Arial-Black'" font-size="12.5px">verbal</tspan><tspan x="177.4" y="135" fill="#010101" font-family="'Arial-Black'" font-size="12.5px" letter-spacing="1"> </tspan><tspan x="183.2" y="135" fill="#010101" font-family="'Arial-Black'" font-size="12.5px">commu</tspan><tspan x="233.2" y="135" fill="#010101" font-family="'Arial-Black'" font-size="12.5px">-</tspan><tspan x="0" y="150" fill="#010101" font-family="'Arial-Black'" font-size="12.5px">nication.</tspan><tspan x="59.7" y="150" fill="#010101" font-family="'Arial-Black'" font-size="12.5px" letter-spacing="2"> </tspan><tspan x="65.9" y="150" fill="#010101" font-family="'Arial-Black'" font-size="12.5px">Good</tspan><tspan x="101.4" y="150" fill="#010101" font-family="'Arial-Black'" font-size="12.5px" letter-spacing="2"> </tspan><tspan x="107.6" y="150" fill="#010101" font-family="'Arial-Black'" font-size="12.5px">design</tspan><tspan x="152.7" y="150" fill="#010101" font-family="'Arial-Black'" font-size="12.5px" letter-spacing="2"> </tspan><tspan x="158.9" y="150" fill="#010101" font-family="'Arial-Black'" font-size="12.5px">is</tspan><tspan x="170.7" y="150" fill="#010101" font-family="'Arial-Black'" font-size="12.5px" letter-spacing="2"> </tspan><tspan x="177" y="150" fill="#010101" font-family="'Arial-Black'" font-size="12.5px">a</tspan><tspan x="185.3" y="150" fill="#010101" font-family="'Arial-Black'" font-size="12.5px" letter-spacing="2"> </tspan><tspan x="191.5" y="150" fill="#010101" font-family="'Arial-Black'" font-size="12.5px">matter </tspan><tspan x="0" y="165" fill="#010101" font-family="'Arial-Black'" font-size="12.5px">of</tspan><tspan x="13.2" y="165" fill="#010101" font-family="'Arial-Black'" font-size="12.5px" letter-spacing="1"> </tspan><tspan x="18.7" y="165" fill="#010101" font-family="'Arial-Black'" font-size="12.5px">perspective</tspan><tspan x="99.3" y="165" fill="#010101" font-family="'Arial-Black'" font-size="12.5px" letter-spacing="1"> </tspan><tspan x="104.8" y="165" fill="#010101" font-family="'Arial-Black'" font-size="12.5px">and</tspan><tspan x="129.8" y="165" fill="#010101" font-family="'Arial-Black'" font-size="12.5px" letter-spacing="1"> </tspan><tspan x="135.3" y="165" fill="#010101" font-family="'Arial-Black'" font-size="12.5px">opinion,</tspan><tspan x="189.5" y="165" fill="#010101" font-family="'Arial-Black'" font-size="12.5px" letter-spacing="1"> </tspan><tspan x="195" y="165" fill="#010101" font-family="'Arial-Black'" font-size="12.5px">within </tspan><tspan x="0" y="180" fill="#010101" font-family="'Arial-Black'" font-size="12.5px">this</tspan><tspan x="25.7" y="180" fill="#010101" font-family="'Arial-Black'" font-size="12.5px" letter-spacing="3"> </tspan><tspan x="33.3" y="180" fill="#010101" font-family="'Arial-Black'" font-size="12.5px">booklet</tspan><tspan x="84.7" y="180" fill="#010101" font-family="'Arial-Black'" font-size="12.5px" letter-spacing="3"> </tspan><tspan x="92.3" y="180" fill="#010101" font-family="'Arial-Black'" font-size="12.5px">are</tspan><tspan x="114.5" y="180" fill="#010101" font-family="'Arial-Black'" font-size="12.5px" letter-spacing="3"> </tspan><tspan x="122.1" y="180" fill="#010101" font-family="'Arial-Black'" font-size="12.5px">examples</tspan><tspan x="188.1" y="180" fill="#010101" font-family="'Arial-Black'" font-size="12.5px" letter-spacing="3"> </tspan><tspan x="195.7" y="180" fill="#010101" font-family="'Arial-Black'" font-size="12.5px">of</tspan><tspan x="208.9" y="180" fill="#010101" font-family="'Arial-Black'" font-size="12.5px" letter-spacing="3"> </tspan><tspan x="216.5" y="180" fill="#010101" font-family="'Arial-Black'" font-size="12.5px">de</tspan><tspan x="233.2" y="180" fill="#010101" font-family="'Arial-Black'" font-size="12.5px">-</tspan><tspan x="0" y="195" fill="#010101" font-family="'Arial-Black'" font-size="12.5px">signs</tspan><tspan x="36.1" y="195" fill="#010101" font-family="'Arial-Black'" font-size="12.5px" letter-spacing="2"> </tspan><tspan x="43" y="195" fill="#010101" font-family="'Arial-Black'" font-size="12.5px">made</tspan><tspan x="80.5" y="195" fill="#010101" font-family="'Arial-Black'" font-size="12.5px" letter-spacing="2"> </tspan><tspan x="87.4" y="195" fill="#010101" font-family="'Arial-Black'" font-size="12.5px">with</tspan><tspan x="117.3" y="195" fill="#010101" font-family="'Arial-Black'" font-size="12.5px" letter-spacing="2"> </tspan><tspan x="124.2" y="195" fill="#010101" font-family="'Arial-Black'" font-size="12.5px">good</tspan><tspan x="157.5" y="195" fill="#010101" font-family="'Arial-Black'" font-size="12.5px" letter-spacing="2"> </tspan><tspan x="164.4" y="195" fill="#010101" font-family="'Arial-Black'" font-size="12.5px">intentions.</tspan><tspan x="0" y="224.4" fill="#A6222E" font-family="'Arial-Black'" font-size="12px">BY</tspan><tspan x="18.7" y="224.4" fill="#A6222E" font-family="'Arial-Black'" font-size="12px" letter-spacing="4">  </tspan><tspan x="35.1" y="224.4" fill="#A6222E" font-family="'Arial-Black'" font-size="12px">M</tspan><tspan x="46.4" y="224.4" fill="#A6222E" font-family="'Arial-Black'" font-size="12px" letter-spacing="4"> </tspan><tspan x="54.6" y="224.4" fill="#A6222E" font-family="'Arial-Black'" font-size="12px">A</tspan><tspan x="63.9" y="224.4" fill="#A6222E" font-family="'Arial-Black'" font-size="12px" letter-spacing="4"> </tspan><tspan x="72.1" y="224.4" fill="#A6222E" font-family="'Arial-Black'" font-size="12px">L</tspan><tspan x="80.1" y="224.4" fill="#A6222E" font-family="'Arial-Black'" font-size="12px" letter-spacing="4"> </tspan><tspan x="88.3" y="224.4" fill="#A6222E" font-family="'Arial-Black'" font-size="12px">I</tspan><tspan x="93" y="224.4" fill="#A6222E" font-family="'Arial-Black'" font-size="12px" letter-spacing="4"> </tspan><tspan x="101.2" y="224.4" fill="#A6222E" font-family="'Arial-Black'" font-size="12px">N</tspan><tspan x="111.1" y="224.4" fill="#A6222E" font-family="'Arial-Black'" font-size="12px" letter-spacing="4"> </tspan><tspan x="119.3" y="224.4" fill="#A6222E" font-family="'Arial-Black'" font-size="12px">A</tspan><tspan x="128.7" y="224.4" fill="#A6222E" font-family="'Arial-Black'" font-size="12px" letter-spacing="4">  </tspan><tspan x="145.1" y="224.4" fill="#A6222E" font-family="'Arial-Black'" font-size="12px">M</tspan><tspan x="156.4" y="224.4" fill="#A6222E" font-family="'Arial-Black'" font-size="12px" letter-spacing="4"> </tspan><tspan x="164.6" y="224.4" fill="#A6222E" font-family="'Arial-Black'" font-size="12px">I</tspan><tspan x="169.2" y="224.4" fill="#A6222E" font-family="'Arial-Black'" font-size="12px" letter-spacing="4"> </tspan><tspan x="177.4" y="224.4" fill="#A6222E" font-family="'Arial-Black'" font-size="12px">K</tspan><tspan x="187.4" y="224.4" fill="#A6222E" font-family="'Arial-Black'" font-size="12px" letter-spacing="4"> </tspan><tspan x="195.6" y="224.4" fill="#A6222E" font-family="'Arial-Black'" font-size="12px">A</tspan><tspan x="205" y="224.4" fill="#A6222E" font-family="'Arial-Black'" font-size="12px" letter-spacing="4"> </tspan><tspan x="213.1" y="224.4" fill="#A6222E" font-family="'Arial-Black'" font-size="12px">M</tspan><tspan x="224.5" y="224.4" fill="#A6222E" font-family="'Arial-Black'" font-size="12px" letter-spacing="4"> </tspan><tspan x="232.7" y="224.4" fill="#A6222E" font-family="'Arial-Black'" font-size="12px">I</tspan></text>
	<path fill="#F15E22" d="M41.9,115.9C41.9,115.9,41.9,115.9,41.9,115.9L41.9,115.9c-0.2,0-0.4,0.1-0.5,0.2c0,0-0.1,0.1-0.1,0.1
		c0,0.1-0.1,0.1-0.1,0.2c-0.1,0.2-0.2,0.5-0.2,0.7c0,0.1,0,0.2,0,0.3l0,0.1c0,0.1,0,0.3,0,0.4l0,0.1c0,0.4,0.1,0.8,0.2,1.3
		c0,0.2,0.1,0.4,0.2,0.7c0.1,0.2,0.2,0.4,0.3,0.7c0.1,0.2,0.2,0.4,0.3,0.6c0.1,0.2,0.2,0.4,0.4,0.6l0.3,0.4l0.6,0.8
		c0.2,0.3,0.4,0.6,0.6,0.9l0.1,0.2l0.1,0.2c0.2,0.3,0.5,0.7,0.8,1l0.2,0.2c0.3,0.5,0.7,0.9,1,1.4l0.1,0.1l0.1,0.1l0.1,0.1
		c0.1,0.1,0.2,0.2,0.3,0.3l0.3,0.3l0.3,0.3l0.1,0.2l0.1,0.2c0.1,0.1,0.2,0.2,0.3,0.3c0.2,0.2,0.3,0.4,0.5,0.6l0.1,0.1
		c0.2,0.2,0.3,0.4,0.4,0.6l0.1,0.2c0,0.1,0.1,0.1,0.1,0.2c0.1,0.1,0.1,0.2,0.2,0.4c0.1,0.1,0.1,0.2,0.1,0.4c-0.1,0-0.2-0.1-0.3-0.1
		c-0.2-0.1-0.5-0.2-0.7-0.3c-0.2-0.1-0.5-0.3-0.7-0.5c-0.2-0.2-0.5-0.4-0.7-0.6l-0.1-0.1c-0.3-0.2-0.6-0.4-0.8-0.7
		c-0.3-0.2-0.6-0.5-0.9-0.8c-0.2-0.2-0.4-0.4-0.6-0.5l-0.1-0.1l-0.2-0.2c-0.6-0.6-1.1-1.1-1.6-1.7l-0.2-0.2l-0.2-0.2l-0.1-0.1
		c-0.1-0.1-0.2-0.2-0.3-0.3l-0.1-0.1l-0.1-0.1l-0.1-0.1c-0.1-0.1-0.1-0.1-0.2-0.2c-0.1-0.1-0.2-0.3-0.4-0.4
		c-0.3-0.3-0.6-0.7-0.8-1.1l-0.4-0.5l-0.1-0.2L39,122c-0.1-0.2-0.2-0.3-0.3-0.4c-0.2-0.2-0.3-0.4-0.5-0.6l-0.1-0.1
		c-0.1-0.2-0.3-0.3-0.5-0.5c-0.2-0.2-0.4-0.3-0.6-0.5c-0.2-0.1-0.4-0.3-0.6-0.4c-0.2-0.1-0.4-0.3-0.7-0.4c-0.2-0.1-0.4-0.2-0.6-0.3
		c-0.2-0.1-0.4-0.2-0.7-0.3c-0.1,0-0.2,0-0.4-0.1c0,0,0,0,0,0c0,0-0.1,0-0.1,0c-0.1,0-0.2,0.1-0.2,0.1c-0.1,0.1-0.2,0.1-0.2,0.3
		c0,0.1-0.1,0.1-0.1,0.2c-0.1,0.2-0.1,0.4-0.2,0.5c0,0.1,0,0.2,0,0.3c0,0.1,0,0.2,0,0.3c0,0.2,0.1,0.4,0.2,0.6
		c0.1,0.2,0.2,0.4,0.3,0.5l0.1,0.2c0.2,0.3,0.4,0.7,0.5,1l0.2,0.3l0.2,0.4l0.1,0.1l0.1,0.1c0.1,0.3,0.3,0.5,0.4,0.8
		c0.3,0.4,0.6,0.8,0.9,1.1c0.3,0.4,0.7,0.7,1,1.1c0.3,0.3,0.7,0.7,1,1c0.4,0.3,0.7,0.7,1.1,1l0.4,0.4l0.2,0.2l0.1,0.1l0.3,0.3
		c0.2,0.2,0.5,0.5,0.8,0.7l0.2,0.2l0.5,0.4c0.1,0.1,0.2,0.2,0.3,0.2l0.1,0.1l0.1,0.1c0.3,0.3,0.7,0.6,1,0.8c0.3,0.3,0.6,0.6,0.9,0.9
		c0.1,0.1,0.2,0.2,0.2,0.3c0,0.1,0,0.1,0,0.2c-0.1,0.1-0.1,0.1-0.1,0.2c0,0-0.1,0.1-0.1,0.1l-0.1,0.1l-0.2,0c-0.3,0-0.5-0.1-0.7-0.2
		c-0.4-0.2-0.7-0.3-1.1-0.5c-0.3-0.1-0.6-0.3-0.8-0.4l-0.2-0.1l-0.3-0.1l-0.1-0.1c-0.2-0.1-0.4-0.2-0.6-0.3c-0.4-0.2-0.7-0.4-1-0.6
		c-0.7-0.5-1.4-1.1-2.3-1.8c-0.4-0.3-0.7-0.6-1.1-0.9c-0.3-0.3-0.6-0.5-0.9-0.8l-0.2-0.1c-0.7-0.6-1.4-1.2-2.2-1.7
		c-0.4-0.3-0.8-0.5-1.2-0.7c-0.1,0-0.2-0.1-0.3-0.1c-0.1,0-0.2,0-0.3,0c0,0-0.1,0-0.1,0c-0.1,0-0.2,0.1-0.3,0.2
		c-0.1,0.1-0.1,0.2-0.1,0.3c0,0.1,0,0.2,0,0.3c0,0.2,0,0.3,0.1,0.4c0.1,0.4,0.3,0.7,0.4,0.9l0,0.1l0.1,0.1c0.1,0.1,0.1,0.2,0.2,0.3
		c0.1,0.2,0.2,0.4,0.4,0.6c0.1,0.2,0.3,0.3,0.4,0.5c0.1,0.2,0.3,0.3,0.4,0.5l0.2,0.2l0.4,0.4l0.4,0.5l0.2,0.3l0.2,0.3l0.2,0.2
		l0.1,0.1l0.1,0.1l0.2,0.2c0.3,0.3,0.6,0.6,1,0.9c0.4,0.3,0.7,0.7,1.1,1c0.2,0.2,0.4,0.3,0.5,0.5l0.2,0.2l0.4,0.3l0.4,0.3
		c0.2,0.2,0.5,0.4,0.7,0.7c0.3,0.3,0.5,0.5,0.8,0.8l0.1,0.1l0.1,0.2c0,0.1,0.1,0.1,0.1,0.2c0.1,0.2,0.1,0.3,0.1,0.4l-0.1,0.1
		c0,0-0.1,0.1-0.2,0.1c0,0-0.1,0.1-0.2,0.1c-0.1,0-0.2,0.1-0.3,0.1c-0.2,0-0.3,0-0.3,0h-0.2c-0.3,0-0.5-0.1-0.8-0.2
		c-0.3-0.1-0.5-0.2-0.8-0.2c-0.2-0.1-0.4-0.2-0.6-0.3c-0.2-0.1-0.4-0.2-0.6-0.3l-1.3-0.7l-0.6-0.3l-0.6-0.3l-0.3-0.1
		c-0.4-0.2-0.7-0.4-1-0.5c-0.5-0.2-0.9-0.4-1.3-0.4c-0.3-0.1-0.6-0.1-0.9-0.1h-0.1c-0.2,0-0.4,0.1-0.5,0.1c-0.1,0-0.1,0.1-0.2,0.1
		c-0.1,0-0.1,0.1-0.1,0.1c-0.1,0.1-0.1,0.1-0.1,0.2c-0.1,0.1-0.1,0.2-0.1,0.3c0,0.1,0,0.1,0,0.2c0,0.1,0,0.1,0,0.2
		c0,0.1,0.1,0.1,0.1,0.2c0.1,0.2,0.3,0.5,0.4,0.7c0.3,0.4,0.6,0.7,0.8,0.9l0.2,0.3l0.1,0.2c0.2,0.2,0.3,0.4,0.5,0.5
		c0.3,0.3,0.6,0.6,1,1c0.1,0.1,0.2,0.2,0.3,0.3l0.2,0.2l0.5,0.5l0.1,0.1c0.1,0.1,0.2,0.3,0.3,0.4l0.3,0.3l0.2,0.2l0.1,0.1
		c0.3,0.3,0.5,0.5,0.8,0.8l0.4,0.3l0.1,0.1c0.2,0.1,0.3,0.3,0.5,0.5c0.1,0.1,0.2,0.2,0.3,0.3c-0.1,0-0.2,0.1-0.3,0.1
		c-0.2,0.1-0.3,0.2-0.5,0.3c0,0,0,0,0,0c0,0-0.1,0-0.1,0.1l-0.2,0.1l-0.1,0.1c-0.1,0-0.2,0.1-0.3,0.1c-0.1,0-0.1,0-0.2,0.1
		c-0.2,0.1-0.4,0.1-0.4,0.3c-0.1,0.1,0,0.3,0,0.5c0.1,0.2,0.1,0.4,0.2,0.6l0.1,0.2l0.5,0.9c0.2,0.3,0.3,0.6,0.5,1
		c0.2,0.3,0.5,0.7,0.7,1c0.2,0.3,0.5,0.6,0.7,0.9l0.2,0.2c0.2,0.2,0.4,0.4,0.5,0.6c0,0.1,0.1,0.1,0.1,0.2c0,0.1,0,0.2,0,0.2l0,0.1
		c0,0,0,0.1-0.1,0.1c-0.1,0.1-0.2,0.2-0.3,0.3c-0.1,0.1-0.2,0.2-0.4,0.3l-0.2,0.2c-0.1,0.1-0.2,0.1-0.3,0.3
		c-0.1,0.1-0.1,0.3-0.1,0.4c0,0.1,0,0.2,0,0.4c0,0.1,0.1,0.3,0.1,0.4c0.1,0.2,0.2,0.4,0.3,0.7c0.1,0.2,0.2,0.3,0.3,0.5l0.1,0.1
		l0.1,0.1c0.2,0.4,0.5,0.7,0.7,1.1c0.2,0.3,0.3,0.6,0.5,1l0.1,0.1l0.2,0.4l0.1,0.1l0.2,0.3l0.1,0.1l0.2,0.3l0.4,0.7l0.3,0.5
		c0.2,0.4,0.4,0.9,0.6,1.3l0.1,0.1l0.1,0.2l0.2,0.5l0.2,0.6l0.2,0.5l0.1,0.3l0.1,0.3l0.1,0.3l0.1,0.1c0.2,0.4,0.3,0.8,0.5,1.1
		l0.2,0.3c0.1,0.2,0.2,0.4,0.3,0.7l0.3,0.7l0.2,0.5c0.2,0.4,0.3,0.8,0.5,1.2c0.2,0.4,0.3,0.8,0.5,1.2c0.2,0.4,0.3,0.8,0.5,1.2
		c0.1,0.2,0.2,0.4,0.3,0.6l0.1,0.2l0.2,0.5l0.3,0.6l0.2,0.5l0.1,0.2l0.3,0.7l0.4,0.7l0.3,0.6l0.1,0.2c0.1,0.2,0.2,0.4,0.3,0.5
		l0.1,0.2c0.1,0.1,0.1,0.2,0.2,0.4l0.2,0.3l0.2,0.3c0.1,0.2,0.2,0.4,0.3,0.6c0.1,0.2,0.2,0.3,0.3,0.5l0.1,0.1l0.4,0.6l0.4,0.6
		c0.1,0.2,0.3,0.4,0.4,0.6c0.1,0.1,0.2,0.3,0.3,0.4l0.1,0.2l0.3,0.4l0.1,0.2c0.1,0.2,0.3,0.4,0.4,0.6l0.1,0.1l0.8,1l0.1,0.2
		c0.2,0.3,0.5,0.6,0.7,0.9c0.3,0.3,0.6,0.7,0.9,1l0.2,0.2c0.1,0.2,0.2,0.2,0.3,0.3c0.2,0.2,0.3,0.3,0.5,0.5c0.1,0.1,0.2,0.3,0.4,0.4
		l0.1,0.1l0.1,0.1l0.1,0.1c0.1,0.1,0.2,0.2,0.2,0.2l0.2,0.2l0.1,0.1c0.6,0.5,1.1,1.1,1.7,1.6l0.4,0.4l0.3,0.3l0.8,0.7
		c0.3,0.2,0.5,0.5,0.7,0.8c0.2,0.2,0.3,0.4,0.5,0.6l0.2,0.2l0.1,0.1c0.2,0.2,0.4,0.4,0.6,0.6c0.2,0.2,0.4,0.5,0.6,0.7
		c0.2,0.3,0.5,0.6,0.8,0.8c0.1,0.1,0.2,0.2,0.2,0.2l-0.2-0.1l-0.2,0l-0.2,0c-0.1,0-0.1,0-0.2,0c-0.1,0-0.2,0-0.3,0l-0.1,0
		c0,0,0,0,0,0c0,0-0.1,0-0.1,0c-0.2,0-0.3,0-0.5-0.1l-0.3-0.1l-0.3-0.1c-0.1,0-0.2,0-0.3,0c-0.1,0-0.1,0-0.2,0h-0.1h-0.2
		c-0.1,0-0.3,0-0.4,0l-0.3,0l-0.3,0c-0.3,0-0.5,0-0.8,0l-0.3,0l-0.4,0c-0.4,0-0.9-0.1-1.3-0.1l-0.3,0l-0.3,0c-0.2,0-0.4,0-0.6,0
		c-0.2,0-0.3,0-0.5-0.1l-0.3,0c-0.3,0-0.5-0.1-0.8-0.1c-0.2,0-0.5,0-0.7,0l-0.1,0l-0.1,0l-0.4,0l-0.7,0l-0.7,0c-0.2,0-0.4,0-0.7,0
		c-0.2,0-0.5,0-0.7,0l-0.3,0c-0.3,0-0.7,0-1,0l-0.4,0l-0.3,0l-0.4,0l-0.3,0c-0.2,0-0.4,0-0.7,0c-0.2,0-0.4,0-0.6,0l-0.1,0l-0.2,0
		l-0.2,0l-0.2,0c-0.2,0-0.5,0.1-0.7,0.1l-0.9,0.1l-0.5,0c-0.2,0-0.3,0-0.5,0.1l-0.2,0l-0.6,0.1l-0.1,0c-0.3,0.1-0.7,0.1-1,0.2
		c-0.3,0.1-0.5,0.2-0.8,0.4c-0.2,0.1-0.4,0.3-0.5,0.4c-0.2,0.2-0.3,0.4-0.3,0.6c-0.1,0.2-0.2,0.4-0.2,0.6c0,0.2-0.1,0.4-0.1,0.5
		c0,0.1,0,0.3-0.1,0.4c0,0.1-0.1,0.2-0.1,0.3c-0.1,0.2-0.1,0.3-0.2,0.4c0,0.1-0.1,0.2-0.1,0.3l-0.2,0.2c-0.1,0.1-0.1,0.1-0.2,0.1
		c-0.3,0.1-0.6,0.2-0.8,0.2c-0.1,0-0.2,0-0.3,0l-0.1,0c-0.2,0-0.4,0.1-0.5,0.1c-0.1,0.1-0.3,0.1-0.4,0.2c-0.1,0-0.1,0.1-0.2,0.1
		c-0.1,0-0.1,0.1-0.2,0.2c-0.2,0.2-0.3,0.4-0.5,0.7c0,0.1-0.1,0.2-0.1,0.3c0,0.1,0,0.2-0.1,0.4c0,0.3,0,0.6,0,0.8
		c0,0.2,0.1,0.4,0.1,0.5c0,0.1,0.1,0.3,0.1,0.4l0.1,0.1l0,0.1c0.1,0.2,0.1,0.3,0.2,0.5c0.1,0.1,0.1,0.2,0.2,0.3
		c0.1,0.1,0.2,0.2,0.3,0.3c0.2,0.2,0.3,0.4,0.5,0.6c0.1,0.1,0.1,0.2,0.2,0.3c0,0.1,0,0.1,0.1,0.2c0,0.1,0,0.1,0,0.2
		c-0.1,0.1-0.1,0.2-0.2,0.4c-0.1,0.1-0.1,0.2-0.2,0.4c-0.1,0.1-0.1,0.2-0.2,0.4c-0.1,0.2-0.1,0.3-0.1,0.5c0,0.2,0,0.3,0.1,0.5
		c0.1,0.2,0.2,0.4,0.3,0.5c0.1,0.1,0.2,0.2,0.4,0.4l0.1,0.1c0.1,0.1,0.3,0.2,0.4,0.3l0,0.1c-0.1,0.2-0.1,0.3-0.2,0.4
		c-0.1,0.1-0.1,0.3-0.2,0.4c-0.1,0.1-0.1,0.3-0.2,0.4c0,0.1-0.1,0.2-0.1,0.3c-0.1,0.3-0.1,0.5-0.1,0.7c0,0.4,0,0.7,0,1
		c0,0.4,0,0.7,0.1,1c0,0.2,0.1,0.4,0.2,0.6c0.1,0.1,0.1,0.3,0.2,0.4c0.1,0.1,0.2,0.3,0.3,0.3c0.1,0.1,0.2,0.2,0.3,0.3
		c0.2,0.2,0.5,0.3,0.7,0.5l0.1,0.1l0.1,0.1l0.2,0.1c0.1,0.1,0.3,0.2,0.4,0.3l0.1,0.1l0,0.1c0,0.2,0,0.3,0,0.5c0,0.1,0,0.2,0,0.3
		l0,0.3c0,0.1-0.1,0.3-0.1,0.4c0,0.1,0,0.2,0,0.3c0,0.1,0,0.2,0,0.4c0.1,0.2,0.2,0.4,0.3,0.5c0.3,0.3,0.6,0.6,1,0.9l0.2,0.2
		c0.3,0.2,0.5,0.4,0.8,0.6c0.2,0.1,0.4,0.3,0.6,0.4l0.3,0.2c0.2,0.1,0.3,0.2,0.3,0.3c0,0,0.1,0.1,0.1,0.1c0,0.1,0,0.1,0,0.2
		c0,0.1,0,0.2,0,0.2l0,0.1c0,0.2,0,0.3,0.1,0.5c0,0.3,0.1,0.6,0.2,0.8c0.1,0.1,0.1,0.2,0.2,0.4c0.1,0.1,0.2,0.2,0.3,0.4
		c0.2,0.2,0.5,0.4,0.8,0.6c0.2,0.2,0.4,0.3,0.5,0.4c0.1,0.1,0.2,0.2,0.3,0.3c0.1,0.1,0.2,0.2,0.2,0.4l0.1,0.2c0,0.1,0.1,0.2,0.1,0.2
		c0.1,0.2,0.2,0.3,0.3,0.4c0.1,0.1,0.2,0.3,0.4,0.4l0.2,0.2l0.2,0.2c0.4,0.3,0.8,0.6,1.1,0.8c0.2,0.1,0.4,0.2,0.6,0.3
		c0.1,0,0.3,0.1,0.4,0.2c0,0,0.1,0.1,0.1,0.1c0,0.1,0.1,0.1,0.1,0.2l0.1,0.2l0.2,0.3c0.2,0.2,0.4,0.5,0.7,0.8
		c0.2,0.2,0.5,0.4,0.7,0.6c0.3,0.1,0.6,0.3,0.8,0.3l0.2,0.1c0.2,0.1,0.4,0.2,0.7,0.2c0.1,0,0.1,0,0.2,0h0.1l0.3,0l0.2,0
		c0.2,0,0.4,0.1,0.6,0.1l0.2,0c0.1,0,0.2,0,0.3,0l0.3,0l0.1,0l0.2,0c0.1,0,0.2,0,0.3,0c0.1,0.1,0.2,0.1,0.3,0.2
		c0.1,0.1,0.2,0.2,0.4,0.3l0.1,0.1c0.1,0.1,0.1,0.1,0.2,0.2c0.4,0.3,0.8,0.6,1.2,0.7c0.1,0,0.3,0.1,0.4,0.1c0.2,0,0.3,0.1,0.5,0.1
		c0.2,0,0.4,0,0.6,0c0.1,0,0.3,0,0.5,0l0.4,0l0.2,0c0.2,0,0.4,0,0.5,0c0.2,0,0.4,0,0.6,0.1c0.1,0,0.1,0,0.2,0l0.4,0.1l0.3,0.1l0.2,0
		c0.2,0,0.3,0.1,0.5,0.1c0.2,0.1,0.4,0.2,0.5,0.3l0.2,0.1c0.3,0.2,0.6,0.3,0.9,0.4c0.3,0.1,0.6,0.2,0.8,0.2c0.3,0,0.6-0.1,0.8-0.1
		c0.1,0,0.2,0,0.2,0l0.1,0c0.1,0,0.2,0,0.3,0c0.2,0,0.4-0.1,0.6-0.1c0.2-0.1,0.5-0.2,0.7-0.3c0.1,0,0.2-0.1,0.2-0.2
		c0.1-0.1,0.2-0.2,0.3-0.3c0.1-0.1,0.2-0.2,0.3-0.3l0.2-0.2c0.2-0.2,0.3-0.3,0.5-0.5l0.1-0.1c0.1-0.1,0.2-0.2,0.3-0.3
		c0.1-0.1,0.2-0.2,0.3-0.3c0.1-0.1,0.2-0.1,0.3-0.2c0.1,0,0.2,0,0.2,0l0.1,0c0.1,0,0.2,0.1,0.3,0.2c0.1,0.1,0.2,0.2,0.4,0.3l0.3,0.2
		c0.1,0.1,0.3,0.2,0.4,0.3c0.1,0.1,0.3,0.2,0.4,0.2c0.1,0.1,0.2,0.1,0.3,0.2l0.1,0l0.2,0.1l0.3,0.1l0.2,0.1c0.2,0.1,0.4,0.2,0.7,0.3
		c0.1,0,0.2,0,0.2,0c0.4,0,0.8-0.3,1.2-0.6c0.1-0.1,0.2-0.2,0.3-0.3c0.1-0.2,0.2-0.4,0.3-0.6c0.3-0.5,0.5-0.9,0.6-1.3
		c0.1-0.1,0.1-0.3,0.2-0.4l0.1-0.3l0.1-0.4c0.2-0.5,0.4-1.1,0.6-1.8c0.2-0.7,0.4-1.3,0.5-1.9c0-0.2,0.1-0.4,0.1-0.5l0-0.1l0-0.1
		l0-0.3l0.1-0.7l0-0.4l0.1-0.5l0.1-0.6c0.1-0.4,0.1-0.7,0.1-1.1c0-0.2,0.1-0.5,0.1-0.7c0-0.2,0.1-0.4,0.1-0.6l0-0.2l0-0.1
		c0-0.2,0.1-0.5,0.1-0.8l0-0.3l0-0.4l0.1-0.7l0.1-0.7l0.1-0.7l0-0.2c0-0.2,0-0.3,0-0.5c0-0.3,0-0.6,0.1-0.8c0-0.2,0-0.4,0.1-0.6
		c0-0.2,0.1-0.3,0.1-0.5c0,0,0-0.1,0.1-0.1c0,0,0-0.1,0.1-0.1c0-0.1,0.1-0.1,0.1-0.2l0.1-0.1c0.1,0,0.1,0,0.2,0
		c0.2,0.1,0.3,0.1,0.4,0.2c0.1,0.1,0.3,0.2,0.4,0.2l0.2,0.1c0.2,0.2,0.4,0.3,0.6,0.5c0.3,0.3,0.5,0.5,0.8,0.8
		c0.2,0.2,0.4,0.4,0.6,0.6l0.3,0.3l0.3,0.4c0.2,0.2,0.4,0.4,0.6,0.6c0.3,0.3,0.6,0.6,0.9,0.9c0.3,0.3,0.6,0.6,0.9,0.9l0.1,0.1
		l0.1,0.1c0.1,0.1,0.2,0.2,0.3,0.3c0.1,0.1,0.3,0.2,0.4,0.3l0.2,0.1l0.1,0.1l0.2,0.1c0.2,0.1,0.4,0.3,0.6,0.4c0.4,0.2,0.7,0.4,1,0.6
		c0,0,0.1,0,0.1,0l0.2,0.1l0.2,0.1c0.4,0.2,0.8,0.4,1.2,0.6c0.3,0.1,0.5,0.3,0.8,0.4l0.4,0.2l0.2,0.1l0.2,0.1l0.1,0.1l0.2,0.1
		c0.2,0.1,0.4,0.2,0.6,0.3c0.1,0.1,0.2,0.1,0.4,0.2l0.2,0.1c0.2,0.1,0.5,0.3,0.7,0.4c0.5,0.2,0.9,0.5,1.4,0.7
		c0.3,0.1,0.6,0.3,0.8,0.4l0.4,0.2c0.3,0.2,0.6,0.3,1,0.5l0.1,0l0.2,0.1c0.2,0.1,0.4,0.2,0.6,0.2l0.3,0.1c0.3,0.1,0.6,0.2,0.8,0.4
		c0.1,0.1,0.2,0.1,0.3,0.2c0.2,0.1,0.4,0.2,0.5,0.3c0.3,0.2,0.6,0.4,0.8,0.6l0.4,0.3c0.2,0.2,0.4,0.3,0.6,0.4
		c0.2,0.1,0.5,0.3,0.8,0.4c0.1,0.1,0.3,0.1,0.4,0.1l0.2,0l0.2,0c0.2,0,0.4,0.1,0.6,0.2l0.2,0.1c0.4,0.1,0.6,0.2,0.8,0.2
		c0.3,0,0.5,0.1,0.8,0.1c0.3,0,0.6,0,0.9,0c0.3,0,0.5,0,0.8,0c0.1,0,0.3,0,0.5,0.1c0.1,0,0.3,0.1,0.4,0.1c0.2,0.1,0.4,0.2,0.6,0.3
		c0.1,0.1,0.3,0.1,0.4,0.2c0.1,0.1,0.3,0.1,0.4,0.2c0.2,0.1,0.5,0.3,0.7,0.4c0.1,0.1,0.3,0.1,0.4,0.2c0.1,0,0.2,0.1,0.3,0.1
		c0.6,0.2,1.1,0.3,1.5,0.4c0.2,0,0.4,0,0.6,0.1c0.2,0,0.3,0,0.5,0l0.1,0l0.1,0c0.1,0,0.1,0,0.2,0c0.1,0,0.2,0,0.3,0
		c0.2,0,0.3,0.1,0.5,0.1c0.2,0.1,0.4,0.2,0.6,0.3c0.1,0.1,0.3,0.3,0.4,0.4c0.1,0.1,0.2,0.2,0.2,0.4c0.1,0.2,0.2,0.3,0.3,0.5
		c0.1,0.1,0.2,0.2,0.3,0.3c0.1,0,0.1,0.1,0.1,0.1l0.1,0c0.1,0,0.1,0,0.2,0c0,0,0.1,0,0.1,0c0.2,0,0.4-0.1,0.5-0.2
		c0.4-0.2,0.8-0.4,1-0.7c0.1-0.2,0.3-0.4,0.4-0.6c0.1-0.1,0.1-0.2,0.2-0.4c0-0.1,0.1-0.1,0.1-0.2c0.1-0.1,0.1-0.1,0.1-0.2
		c0.1,0.1,0.1,0.2,0.1,0.3c0.1,0.2,0.1,0.4,0.2,0.5l0,0.1c0.1,0.3,0.2,0.7,0.4,1l0,0.1c0.1,0.2,0.1,0.3,0.2,0.4
		c0.1,0.1,0.2,0.3,0.3,0.4c0.2,0.2,0.4,0.5,0.6,0.7c0.2,0.3,0.4,0.4,0.6,0.5c0.2,0.1,0.4,0.2,0.7,0.3c0.1,0,0.2,0.1,0.3,0.1
		c0.3,0,0.6-0.1,0.8-0.2c0.2-0.1,0.2-0.2,0.3-0.3c0.1-0.2,0.2-0.4,0.3-0.6c0.1-0.2,0.1-0.4,0.2-0.7c0-0.2,0.1-0.5,0.1-0.7
		c0-0.3,0-0.7,0-1c0-0.3,0-0.7-0.1-1l0-0.1l0-0.1l0-0.2c0-0.2,0-0.3-0.1-0.5c0-0.3,0-0.5-0.1-0.7l0-0.2c0-0.3,0-0.6,0-0.9
		c0-0.1,0-0.3,0.1-0.4c0.1-0.3,0.6-0.2,0.8,0.1l0.1,0.1l0.1,0.1l0.1,0.1l0.1,0.1l0.1,0.2c0.1,0.2,0.2,0.3,0.3,0.4l0.4,0.6
		c0.1,0.2,0.3,0.4,0.4,0.6c0.3,0.4,0.6,0.7,1,1.1c0.3,0.4,0.7,0.7,1.1,1c0.2,0.1,0.3,0.3,0.5,0.4c0.2,0.2,0.4,0.3,0.6,0.5l0.2,0.2
		l0.3,0.3c0.1,0.1,0.2,0.2,0.3,0.3l0.1,0.1l0.2,0.2c0.2,0.2,0.3,0.3,0.5,0.5l0.2,0.2l0.2,0.2c0.1,0.1,0.2,0.1,0.2,0.1l0.1,0.1
		c0.2,0.1,0.3,0.1,0.4,0.2c0.1,0,0.1,0,0.2,0l0.1,0c0.1,0,0.1,0,0.2,0c0.1,0,0.2-0.1,0.3-0.2c0.1-0.2,0.2-0.3,0.2-0.5
		c0-0.2,0.1-0.4,0.1-0.6c0-0.2,0-0.4-0.1-0.7c0-0.1-0.1-0.3-0.1-0.5c-0.1-0.3-0.2-0.5-0.2-0.7c-0.1-0.2-0.2-0.5-0.3-0.7
		c-0.1-0.1-0.1-0.3-0.2-0.4l-0.1-0.1c-0.2-0.5-0.4-0.9-0.7-1.4c-0.1-0.3-0.3-0.6-0.5-0.9l-0.1-0.2l-0.2-0.3l-0.1-0.2l-0.1-0.2
		l-0.1-0.2c-0.1-0.3-0.3-0.6-0.4-0.8c-0.2-0.4-0.4-0.9-0.6-1.4c0,0,0-0.1,0-0.1c0,0,0-0.1,0-0.2c0-0.2,0-0.2,0.1-0.2
		c0.1,0,0.1,0,0.2,0.1c0.3,0.2,0.7,0.4,1,0.7l0.6,0.5l0.4,0.4c0.2,0.2,0.3,0.3,0.5,0.4l0.1,0.1c0.2,0.2,0.3,0.3,0.5,0.4
		c0.4,0.3,0.8,0.5,1.2,0.8c0.4,0.2,0.9,0.4,1.4,0.6c0.5,0.2,0.9,0.3,1.3,0.3l0.1,0c0.2,0,0.3,0,0.5,0l0.2,0l0.1-0.1
		c0.2-0.1,0.3-0.1,0.4-0.2c0.2-0.1,0.3-0.2,0.5-0.3c0.1-0.1,0.2-0.2,0.3-0.4c0.1-0.1,0.1-0.2,0.1-0.3c0-0.1,0-0.1,0-0.2
		c0-0.1,0-0.1-0.1-0.2c0-0.1-0.1-0.2-0.1-0.2c-0.1-0.1-0.1-0.2-0.2-0.2c-0.3-0.3-0.5-0.5-0.8-0.8c-0.2-0.1-0.3-0.3-0.5-0.4l-0.4-0.3
		l-0.2-0.2c-0.4-0.3-0.8-0.6-1.1-0.9c-0.2-0.2-0.4-0.3-0.7-0.5l-0.2-0.2l-0.3-0.2c-0.4-0.3-0.7-0.6-1-1c-0.1-0.1-0.1-0.2-0.2-0.3
		c0-0.1,0-0.1,0-0.2c0-0.1,0.1-0.2,0.2-0.2l0.1,0c0.1,0,0.2,0,0.3,0c0.4,0.1,0.7,0.2,1.2,0.4c0.3,0.1,0.5,0.3,0.7,0.4l0.5,0.2
		c0.2,0.1,0.3,0.2,0.5,0.3c0.3,0.1,0.6,0.3,0.8,0.3c0.2,0.1,0.4,0.1,0.7,0.2c0.1,0,0.1,0,0.2,0l0.1,0c0.2,0,0.3,0.1,0.5,0.1l0.2,0
		c0.1,0,0.2,0,0.2,0c0.2,0,0.2,0,0.2,0c0,0,0,0,0,0c0,0,0.1,0,0.1,0c0.1,0,0.2-0.1,0.3-0.1c0.1-0.1,0.3-0.2,0.4-0.3
		c0.1-0.1,0.2-0.2,0.2-0.3c0.2-0.3,0.3-0.6,0.2-0.8c0-0.1-0.1-0.2-0.1-0.3c-0.1-0.1-0.1-0.1-0.2-0.2l-0.1-0.1l-0.1-0.1
		c-0.1,0-0.1-0.1-0.2-0.1l-0.1-0.1c-0.4-0.2-0.8-0.5-1.2-0.8c-0.3-0.2-0.5-0.4-0.8-0.5l-0.3-0.2l-0.5-0.4c-0.4-0.3-0.7-0.5-1-0.7
		c-0.3-0.2-0.5-0.4-0.8-0.7c0,0-0.1-0.1-0.1-0.1l-0.1-0.1c-0.2-0.2-0.3-0.3-0.4-0.5l-0.1-0.1c0-0.1-0.1-0.1-0.1-0.1
		c0-0.1,0.1-0.1,0.2-0.1c0.2,0.1,0.4,0.2,0.6,0.3c0.2,0.1,0.4,0.2,0.5,0.3l0.2,0.1l0.3,0.2l0.4,0.2l0.2,0.1l0.3,0.1l0.3,0.1
		c0.2,0.1,0.4,0.2,0.6,0.2l0.6,0.2c0.2,0.1,0.5,0.2,0.7,0.2c0.4,0.1,0.8,0.2,1.3,0.2c0.2,0,0.3,0,0.5,0h0.2c0.3,0,0.5,0,0.8-0.1
		c0.2,0,0.4-0.1,0.6-0.1l0.1,0c0.2-0.1,0.4-0.1,0.6-0.2c0.5-0.1,0.9-0.3,1.3-0.6c0.1-0.1,0.3-0.2,0.4-0.3c0.2-0.2,0.3-0.3,0.4-0.4
		c0.1-0.1,0.1-0.2,0.2-0.3c0-0.2,0-0.4-0.1-0.5c-0.1-0.1-0.3-0.2-0.5-0.2c-0.3-0.1-0.6-0.1-0.9-0.2c-0.3,0-0.6,0-0.9,0
		c-0.2,0-0.4,0-0.6,0l-0.2,0c-0.1,0-0.3,0-0.4,0c-0.1,0-0.2,0-0.4,0c-0.1,0-0.2,0-0.3,0c-0.2,0-0.4,0-0.6-0.1l-0.3,0l-0.1,0
		c-0.2,0-0.5,0-0.7-0.1c-0.2,0-0.5-0.1-0.7-0.2c-0.2-0.1-0.5-0.1-0.7-0.2c-0.2-0.1-0.5-0.2-0.6-0.2l-0.2-0.1
		c-0.3-0.1-0.5-0.2-0.8-0.3c-0.2-0.1-0.4-0.2-0.6-0.3l-0.2-0.1l-0.2-0.1l-0.2-0.1c-0.2-0.1-0.4-0.3-0.6-0.4
		c-0.2-0.1-0.4-0.3-0.6-0.4c-0.1-0.1-0.2-0.2-0.3-0.3c0.5,0.1,0.9,0.3,1.3,0.4l0.6,0.2c0.4,0.1,0.8,0.2,1.4,0.3
		c0.4,0.1,0.8,0.1,1.2,0.1c0.2,0,0.4,0,0.6,0c0.2,0,0.4,0,0.6,0c0.2,0,0.4,0,0.6-0.1c0.2,0,0.4-0.1,0.5-0.2c0.1,0,0.2-0.1,0.3-0.2
		c0.1,0,0.2-0.1,0.2-0.2l0.1-0.1c0,0,0.1-0.1,0.1-0.2c0-0.1,0-0.2-0.1-0.3c0,0-0.1-0.1-0.1-0.1c-0.1-0.1-0.2-0.2-0.3-0.2
		c-0.2-0.1-0.3-0.2-0.5-0.2c-0.2-0.1-0.4-0.1-0.6-0.2c-0.2-0.1-0.5-0.1-0.7-0.1c-0.1,0-0.1,0-0.2,0l-0.1,0c-0.1,0-0.2,0-0.3,0
		c-0.4-0.1-0.7-0.1-1.1-0.2l-0.3-0.1c-0.4-0.1-0.9-0.2-1.3-0.3c-0.1,0-0.3-0.1-0.4-0.1l-0.1-0.1c-0.2-0.1-0.3-0.1-0.5-0.2l-0.3-0.1
		c-0.4-0.2-0.8-0.3-1.2-0.5c-0.2-0.1-0.4-0.2-0.6-0.3l-0.2-0.1c-0.2-0.1-0.3-0.2-0.5-0.3l-0.3-0.2l-0.4-0.3
		c-0.2-0.1-0.3-0.2-0.5-0.3l-0.1-0.1l-0.1-0.1c-0.3-0.3-0.6-0.5-0.9-0.8c-0.3-0.3-0.5-0.5-0.7-0.8c-0.1-0.2-0.3-0.4-0.4-0.7
		c-0.1-0.2-0.3-0.5-0.4-0.7c-0.2-0.4-0.5-0.8-0.9-1.1l-0.1-0.1c-0.2-0.2-0.4-0.4-0.5-0.5l-0.1-0.1l-0.1-0.1c-0.1,0-0.1-0.1-0.2-0.1
		c-0.1-0.1-0.2-0.1-0.3-0.2c-0.2-0.1-0.3-0.2-0.5-0.3l-0.3-0.2l-0.1-0.1l-0.3-0.2c-0.1-0.1-0.2-0.1-0.3-0.2l-0.2-0.1l-0.3-0.2
		c-0.2-0.2-0.5-0.3-0.8-0.4l-0.6-0.3l-0.6-0.3l-0.1-0.1c-0.2-0.1-0.3-0.2-0.5-0.3l-0.2-0.1l-0.4-0.2l-0.3-0.2l-0.2-0.1l-0.1-0.1
		c-0.1,0-0.1-0.1-0.2-0.1l-0.1-0.1l-0.1-0.1l-0.2-0.1l-0.1-0.1l-0.4-0.2c-0.2-0.1-0.5-0.2-0.7-0.3c-0.3-0.1-0.6-0.3-0.8-0.4
		l-0.5-0.2l-0.4-0.2c-0.3-0.1-0.5-0.3-0.8-0.4l-0.3-0.2l-0.3-0.2l-0.1-0.1l-0.1,0c-0.2-0.1-0.3-0.2-0.5-0.3
		c-0.3-0.1-0.5-0.3-0.8-0.4l-0.2-0.1c-0.3-0.1-0.4-0.2-0.6-0.3l-0.1-0.1c-0.1-0.1-0.1-0.1-0.2-0.1l-0.3-0.2l-0.1-0.1
		c-0.1-0.1-0.2-0.1-0.3-0.2L112,195l-0.2-0.1l-0.4-0.2c-0.2-0.1-0.4-0.2-0.5-0.3c-0.1-0.1-0.3-0.2-0.4-0.2c0,0-0.1-0.1-0.1-0.1
		l-0.2-0.1l-0.2-0.1c-0.1,0-0.1-0.1-0.2-0.1l-0.1-0.1l-0.1-0.1l-0.2-0.1l-0.2-0.1c-0.1-0.1-0.2-0.1-0.3-0.2l-0.2-0.1l-0.1-0.1
		l-0.2-0.1l-0.1-0.1l-0.3-0.2c0,0-0.1-0.1-0.1-0.1c-0.2-0.1-0.4-0.3-0.6-0.4l-0.1-0.1l-0.2-0.2c-0.2-0.1-0.3-0.2-0.4-0.3l-0.2-0.1
		c-0.1-0.1-0.2-0.1-0.2-0.2l-0.1-0.1c-0.1-0.1-0.2-0.2-0.3-0.3c-0.1-0.1-0.2-0.2-0.3-0.3c-0.1-0.1-0.2-0.2-0.2-0.3l-0.1-0.2L105,190
		l-0.1-0.1c-0.1-0.1-0.1-0.2-0.2-0.3l0-0.1c0-0.2-0.1-0.4,0-0.5c0,0,0-0.1,0.1-0.1c0-0.1,0.1-0.1,0.1-0.2c0-0.1,0.1-0.2,0.2-0.3
		c0-0.1,0.1-0.1,0.1-0.2c0.1-0.1,0.2-0.2,0.3-0.3l0.1-0.1c0.1-0.1,0.2-0.1,0.2-0.2l0.1-0.1l0.1-0.1c0,0,0.1-0.1,0.1-0.1l0.1-0.1
		c0,0,0.1-0.1,0.1-0.1c0.1-0.1,0.2-0.2,0.4-0.2l0.2-0.1c0.1,0,0.1-0.1,0.2-0.1c0.1,0,0.1-0.1,0.2-0.1l0.2-0.1l0.2-0.1
		c0.2-0.1,0.3-0.2,0.5-0.3c0,0,0.2-0.1,0.2-0.1c0,0,0.4-0.2,0.5-0.3l0.2-0.1c0.2-0.1,0.4-0.2,0.7-0.3l0.4-0.2c0.1,0,0.2-0.1,0.3-0.1
		l0.1-0.1l0.1-0.1c0.1-0.1,0.2-0.1,0.3-0.1c0.1,0,0.2-0.1,0.3-0.1c0.1-0.1,0.2-0.1,0.4-0.1l0.2-0.1c0.1,0,0.2-0.1,0.3-0.1
		c0.1,0,0.2-0.1,0.3-0.1l0.1,0l0.2-0.1l0.1,0l0.1,0l0.2-0.1c0.1,0,0.2-0.1,0.4-0.1l0.3-0.1c0.1,0,0.3-0.1,0.4-0.1l0.2-0.1l0.2-0.1
		l0.2-0.1c0.1-0.1,0.2-0.1,0.3-0.1l0.1,0l0.2-0.1l0.1,0c0.2-0.1,0.4-0.1,0.5-0.2l0.2-0.1l0.1-0.1c0.1-0.1,0.2-0.1,0.3-0.2
		c0,0,0.1-0.1,0.1-0.1c0.1-0.1,0.1-0.1,0.2-0.2c0-0.1,0.1-0.1,0.1-0.2c0,0,0-0.1,0-0.1c0,0,0-0.1,0-0.1c0-0.1-0.1-0.1-0.1-0.2
		c-0.1,0-0.1-0.1-0.2-0.1c-0.1,0-0.2,0-0.3-0.1l-0.1,0c-0.2,0-0.4,0-0.5,0c-0.2,0-0.3,0-0.4,0c-0.1,0-0.3,0-0.5,0l-0.3,0
		c-0.1,0-0.2,0-0.3,0c-0.2,0-0.4-0.1-0.5-0.1c-0.1-0.1-0.2-0.1-0.3-0.2c-0.1,0-0.1-0.1-0.1-0.1c0-0.1,0.1-0.1,0.2-0.2
		c0.1,0,0.1-0.1,0.2-0.1c0.3-0.1,0.7-0.2,1.1-0.3c0.2,0,0.3,0,0.5,0c0.2,0,0.3,0,0.5-0.1c0.2,0,0.4-0.1,0.6-0.1l0.4-0.1
		c0.2,0,0.4-0.1,0.6-0.2c0,0,0.1-0.1,0.1-0.1c0.1-0.1,0.1-0.2,0.1-0.2c0-0.1,0-0.2,0-0.4c-0.1-0.1-0.2-0.2-0.3-0.3l-0.3-0.2
		l-0.2-0.1c-0.2-0.1-0.3-0.2-0.5-0.3c-0.2-0.1-0.4-0.2-0.6-0.2c-0.1,0-0.2-0.1-0.3-0.1l-0.2,0l-0.4-0.1c-0.1,0-0.3,0-0.4-0.1l-0.1,0
		l-0.1,0l-0.1,0c-0.1,0-0.2,0-0.2,0c-0.1,0-0.2,0-0.2,0c0,0-0.3,0-0.3,0l-0.1,0l-0.1,0l-0.4,0h-0.2c-0.1,0-0.2,0-0.3,0
		c-0.1,0-0.2,0-0.4,0c-0.2,0-0.3,0-0.3,0l-0.2,0l-0.2,0c-0.2,0-0.3,0-0.5,0h-0.3c0,0,0,0,0,0c-0.5,0-0.9,0-1.4,0l-0.2,0l-0.3,0
		l-0.2,0l-0.4-0.1c-0.4-0.1-0.8-0.1-1.2-0.1l-0.2,0l-0.2,0l-0.3,0l-0.1,0l-0.3,0l-0.2,0c-0.2,0-0.3,0-0.5,0c-0.1,0-0.2,0-0.3,0
		c-0.2,0-0.3,0-0.5,0c-0.3,0-0.5,0.1-0.8,0.1c-0.2,0-0.5,0.1-0.7,0.1c-0.4,0-0.7,0.1-1,0.1c-0.5,0.1-1,0.2-1.5,0.3
		c-0.3,0.1-0.6,0.1-0.9,0.2c-0.2,0-0.4,0.1-0.6,0.1c-0.2,0-0.5,0-0.7,0h-0.1l-0.2,0l-0.3,0l-0.1,0c-0.2,0-0.5,0-0.7,0
		c-0.4,0-0.8-0.1-1.2-0.2c-0.1,0-0.2,0-0.3-0.1l-0.1,0l-0.1,0l-0.2-0.1l-0.2-0.1l-0.1-0.1l-0.1-0.1l-0.2-0.1l-0.1-0.1l-0.1-0.1
		l-0.1-0.1l-0.1-0.1c-0.3-0.2-0.5-0.5-0.7-0.7l-0.1-0.1c-0.1-0.1-0.1-0.1-0.2-0.2c-0.1-0.1-0.2-0.2-0.3-0.3l-0.1-0.1l-0.1-0.1
		c-0.1-0.1-0.2-0.2-0.3-0.4c0,0-0.1-0.1-0.1-0.1l-0.2-0.2c0,0-0.1-0.1-0.1-0.1l-0.1-0.2c-0.1-0.1-0.1-0.2-0.2-0.2l-0.2-0.2
		c-0.2-0.3-0.4-0.5-0.5-0.7l-0.1-0.2l-0.2-0.3l-0.2-0.3l-0.1-0.2c0-0.1-0.1-0.2-0.2-0.3l-0.2-0.3c-0.1-0.2-0.2-0.3-0.3-0.5
		c-0.1-0.1-0.2-0.3-0.3-0.4l-0.3-0.4c-0.1-0.1-0.1-0.2-0.2-0.4c-0.1-0.2-0.2-0.3-0.3-0.5c-0.1-0.2-0.2-0.3-0.3-0.5l-0.2-0.3
		l-0.3-0.4l-0.2-0.3l-0.2-0.3l-0.1-0.2l-0.1-0.2c-0.1-0.2-0.2-0.4-0.3-0.7c-0.1-0.2-0.2-0.4-0.3-0.6l-0.3-0.5l-0.1-0.2
		c-0.1-0.1-0.2-0.3-0.2-0.4l-0.1-0.1c-0.1-0.1-0.1-0.2-0.2-0.3c-0.1-0.1-0.1-0.2-0.2-0.3c-0.2-0.4-0.5-0.8-0.7-1.2
		c-0.2-0.3-0.3-0.5-0.5-0.8L83,162l-0.2-0.2c-0.2-0.4-0.5-0.8-0.7-1.2c-0.2-0.3-0.3-0.5-0.4-0.8l-0.2-0.4l-0.3-0.6l-0.3-0.6
		c-0.1-0.2-0.3-0.5-0.4-0.7c-0.1-0.2-0.2-0.3-0.3-0.5c-0.3-0.4-0.5-0.9-0.8-1.3c-0.2-0.3-0.5-0.7-0.7-1c-0.2-0.3-0.4-0.7-0.6-1
		l-0.1-0.2c-0.1-0.2-0.3-0.5-0.4-0.8l-0.3-0.5c-0.1-0.2-0.3-0.4-0.4-0.7l-0.1-0.2l-0.2-0.4c-0.2-0.4-0.4-0.7-0.7-1.1l-0.1-0.1
		l-0.4-0.7l-0.2-0.3c-0.1-0.1-0.2-0.3-0.2-0.4c-0.1-0.2-0.2-0.3-0.3-0.5c-0.1-0.2-0.3-0.4-0.5-0.6c-0.2-0.3-0.5-0.5-0.7-0.7
		l-0.3-0.3c-0.2-0.1-0.3-0.3-0.4-0.4c-0.2-0.3-0.4-0.5-0.6-0.6c-0.4-0.3-0.7-0.6-1.1-0.9c-0.4-0.3-0.8-0.6-1.3-0.8
		c-0.1-0.1-0.2-0.1-0.3-0.2l-0.3-0.2c-0.2-0.1-0.4-0.2-0.6-0.4c-0.1-0.1-0.2-0.2-0.3-0.3c-0.1-0.1-0.2-0.2-0.2-0.3
		c-0.2-0.3-0.4-0.6-0.6-0.8l-0.2-0.4l-0.1-0.1l-0.1-0.1l-0.1-0.1l-0.1-0.2c-0.2-0.3-0.4-0.7-0.5-1c-0.2-0.3-0.3-0.7-0.5-1
		c-0.2-0.5-0.4-1-0.5-1.4c-0.1-0.3-0.2-0.6-0.2-0.9c0-0.2-0.1-0.4-0.1-0.6c-0.1-0.2-0.1-0.4-0.2-0.6c-0.1-0.2-0.1-0.4-0.2-0.6
		l-0.3-0.7l-0.1-0.3l-0.1-0.3l-0.2-0.5l-0.3-0.9l-0.2-0.5c-0.1-0.3-0.2-0.6-0.3-0.9c-0.1-0.4-0.3-0.9-0.5-1.3
		c-0.2-0.4-0.4-0.8-0.6-1.2c-0.1-0.1-0.2-0.3-0.4-0.4c-0.2-0.1-0.3-0.2-0.4-0.3c-0.1,0-0.2,0-0.2,0c-0.1,0-0.2,0-0.3,0.1
		c-0.1,0.1-0.1,0.3-0.1,0.4c0,0.2,0,0.5,0,0.7l0,0.4l0,0.2c0,0.2,0,0.4,0,0.7c0,0.2,0,0.4,0,0.5c0,0.2,0.1,0.4,0.1,0.6
		c0.1,0.4,0.2,0.8,0.4,1.2c0.2,0.4,0.4,0.8,0.6,1.2c0.2,0.4,0.4,0.8,0.6,1.2c0.1,0.2,0.2,0.5,0.3,0.8l0.1,0.2l0.3,0.7l0.1,0.4
		c0.1,0.4,0.2,0.8,0.4,1.1l0.1,0.2c-0.2-0.2-0.3-0.4-0.5-0.6c-0.2-0.3-0.5-0.5-0.7-0.8c-0.2-0.2-0.3-0.4-0.4-0.5l-0.1-0.2l-0.2-0.2
		c-0.1-0.1-0.2-0.3-0.3-0.4l-0.3-0.4c-0.1-0.1-0.2-0.3-0.3-0.4l-0.1-0.2l-0.1-0.1l-0.1-0.1l-0.1-0.1l-0.2-0.3
		c-0.2-0.2-0.3-0.4-0.4-0.6c-0.1-0.2-0.3-0.4-0.4-0.6l-0.1-0.1l-0.3-0.4l-0.1-0.2l-0.2-0.3c-0.1-0.2-0.3-0.4-0.4-0.6
		c-0.2-0.4-0.5-0.8-0.7-1.1c-0.2-0.3-0.3-0.6-0.5-0.9l-0.2-0.4l-0.3-0.6l-0.3-0.6c-0.2-0.3-0.3-0.7-0.5-1l-0.1-0.2l-0.1-0.3
		l-0.1-0.3l-0.1-0.3l0-0.1c-0.2-0.4-0.3-0.9-0.5-1.3c-0.2-0.5-0.3-0.9-0.4-1.4l-0.2-0.7l-0.1-0.3l-0.1-0.4c-0.1-0.3-0.2-0.6-0.3-0.9
		l-0.1-0.4l-0.1-0.3l0-0.1l-0.1-0.3c-0.1-0.2-0.2-0.5-0.3-0.7c-0.2-0.4-0.4-0.8-0.6-1.2c-0.1-0.1-0.1-0.2-0.2-0.3
		c-0.1-0.1-0.2-0.1-0.3-0.2c-0.1-0.1-0.2-0.1-0.3-0.1c0,0-0.1,0-0.1,0c-0.1,0-0.2,0.1-0.3,0.1c-0.1,0-0.2,0.1-0.3,0.1
		c-0.1,0.1-0.2,0.2-0.3,0.4c-0.1,0.1-0.1,0.3-0.2,0.5c0,0.2-0.1,0.4-0.1,0.5c0,0.2,0,0.4,0,0.6c0,0.4,0.1,0.8,0.2,1.2
		c0.1,0.3,0.1,0.5,0.2,0.8l0,0.2l0,0.1l0.1,0.3c0.1,0.5,0.3,1,0.4,1.4l0.1,0.2c0.1,0.2,0.1,0.3,0.2,0.5c0.1,0.2,0.2,0.4,0.3,0.6
		c0.1,0.3,0.3,0.6,0.4,0.9l0.1,0.2l0.1,0.3c0.1,0.2,0.2,0.4,0.3,0.6l0,0.1c0.1,0.2,0.1,0.4,0.2,0.5c0.1,0.1,0.1,0.2,0.2,0.3l0.1,0.3
		c0,0.1,0.1,0.1,0.1,0.2l0.1,0.3l0.1,0.2c0.1,0.1,0.2,0.3,0.2,0.4l0.1,0.3l0.2,0.3c0.1,0.3,0.3,0.5,0.5,0.7c0.2,0.2,0.3,0.4,0.5,0.7
		c0.2,0.3,0.5,0.6,0.7,1l0.1,0.2l0.1,0.2l0.1,0.2l0.1,0.2l0.1,0.1l0.1,0.1c0.1,0.1,0.1,0.2,0.2,0.3l0.1,0.2l0.1,0.2
		c0.1,0.1,0.1,0.2,0.2,0.3l-0.1,0.1l0,0c0,0-0.1,0-0.2-0.1c-0.2-0.1-0.2-0.1-0.3-0.2l-0.4-0.3c-0.2-0.1-0.4-0.3-0.6-0.5
		c-0.2-0.2-0.4-0.4-0.6-0.5c0,0-0.1-0.1-0.1-0.1c-0.3-0.2-0.4-0.3-0.5-0.4c-0.2-0.2-0.4-0.4-0.6-0.6l-0.4-0.4l-0.2-0.2
		c-0.2-0.2-0.5-0.5-0.7-0.7c-0.4-0.5-0.8-0.9-1.2-1.4c-0.2-0.3-0.5-0.6-0.7-0.9c-0.3-0.3-0.6-0.7-0.9-1c-0.2-0.2-0.4-0.4-0.6-0.6
		l-0.2-0.2c-0.2-0.2-0.3-0.3-0.4-0.5c-0.1-0.1-0.2-0.3-0.3-0.4l-0.1-0.1l-0.1-0.1c-0.1-0.1-0.2-0.3-0.3-0.5c0-0.1-0.1-0.1-0.1-0.2
		l-0.2-0.3l-0.1-0.1c-0.2-0.4-0.5-0.8-0.7-1.3c-0.1-0.2-0.2-0.5-0.3-0.7c-0.1-0.2-0.2-0.4-0.4-0.7c-0.1-0.2-0.2-0.4-0.3-0.6
		c-0.1-0.2-0.3-0.5-0.4-0.7c-0.1-0.2-0.3-0.5-0.4-0.7l-0.1-0.2l-0.2-0.3c-0.2-0.3-0.4-0.6-0.6-0.8c-0.2-0.2-0.5-0.4-0.8-0.6
		c-0.1-0.1-0.2-0.1-0.3-0.2C42.2,116,42,115.9,41.9,115.9L41.9,115.9L41.9,115.9z"/>
	<path fill="#F15E22" d="M445.6,262.1c-0.1,0-0.1,0-0.2,0c-0.1,0-0.2,0.1-0.3,0.1c0,0-0.1,0.1-0.1,0.1l-0.1,0.1
		c0,0.1-0.1,0.1-0.1,0.2c-0.1,0.1-0.1,0.2-0.1,0.3c-0.1,0.1-0.1,0.3-0.1,0.5c0,0.1,0,0.3-0.1,0.5c0,0.4,0,0.7,0,1.1
		c0,0.1,0,0.3,0.1,0.4c0.1,0.4,0.1,0.6,0.2,0.9c0,0.1,0.1,0.2,0.1,0.3l0.1,0.2l0.1,0.2c0.1,0.1,0.1,0.3,0.2,0.4
		c0.3,0.7,0.7,1.4,1,2.1l0.2,0.3l0.2,0.5c0.1,0.3,0.3,0.6,0.4,0.8l0.3,0.7l0.1,0.1c0.1,0.2,0.2,0.4,0.3,0.6c0.1,0.3,0.3,0.6,0.4,0.9
		c0.1,0.2,0.1,0.4,0.2,0.7c0,0.2,0.1,0.4,0.1,0.6c0,0,0,0.1,0,0.2l0,0.1l-0.1,0l-0.1,0l-0.1,0c-0.1-0.1-0.2-0.1-0.3-0.2
		c-0.1-0.1-0.2-0.2-0.3-0.4l-0.2-0.3l-0.2-0.2c-0.2-0.2-0.3-0.4-0.4-0.6l-0.2-0.3l-0.2-0.3c-0.2-0.2-0.3-0.4-0.5-0.6
		c-0.2-0.2-0.3-0.4-0.5-0.7l-0.1-0.1l-0.1-0.1l-0.1-0.1l-0.2-0.2c-0.2-0.2-0.3-0.4-0.4-0.7l-0.1-0.2l-0.2-0.3l-0.1-0.1
		c-0.1-0.2-0.2-0.4-0.4-0.6c-0.2-0.4-0.5-0.8-0.8-1.2c-0.1-0.2-0.3-0.3-0.4-0.5c-0.2-0.2-0.3-0.3-0.5-0.5c-0.3-0.3-0.7-0.6-1.1-0.8
		c-0.1-0.1-0.2-0.1-0.4-0.1l-0.1,0c0,0-0.1,0-0.1,0c-0.1,0-0.1,0-0.2,0c-0.1,0-0.2,0.1-0.3,0.2c-0.1,0.1-0.2,0.2-0.2,0.3
		c-0.1,0.2-0.1,0.3-0.1,0.4c0,0.2,0,0.3,0,0.4c0,0.3,0.1,0.6,0.1,0.9c0,0.2,0.1,0.3,0.1,0.5c0,0.1,0.1,0.2,0.1,0.4l0.1,0.3
		c0.1,0.5,0.3,0.8,0.4,1.2c0.2,0.4,0.4,0.8,0.6,1.1c0.2,0.4,0.4,0.7,0.6,1.1c0.2,0.4,0.4,0.7,0.5,1.1c0,0.1,0,0.1,0,0.2l0,0.1
		c0,0-0.1,0-0.1,0c-0.2,0-0.4,0-0.5,0l-0.2,0c-0.1,0-0.2,0-0.3,0l-0.1,0c-0.1,0-0.1,0-0.2,0c-0.2,0-0.3,0.1-0.4,0.2
		c-0.1,0.1-0.2,0.1-0.2,0.2c0,0.1-0.1,0.1-0.1,0.2c-0.1,0.2-0.1,0.4-0.1,0.6c0,0.3,0.1,0.6,0.4,0.9c0.2,0.3,0.4,0.6,0.8,0.9
		c0.2,0.1,0.3,0.3,0.5,0.4c0.2,0.1,0.4,0.3,0.5,0.4c0.2,0.1,0.4,0.2,0.6,0.3c0.1,0,0.2,0.1,0.3,0.1l0.3,0.1c0.4,0.1,0.7,0.3,1.1,0.5
		c0.3,0.1,0.5,0.3,0.6,0.5c0.1,0.1,0.2,0.2,0.2,0.3l0,0.1c-0.1,0.1-0.2,0.2-0.3,0.2c-0.1,0.1-0.2,0.1-0.3,0.1l-0.2,0.1
		c-0.1,0-0.2,0.1-0.3,0.1l-0.1,0c-0.1,0-0.2,0-0.3,0.1c-0.2,0-0.3,0-0.5,0.1l-0.1,0l-0.2,0l-0.2,0l-0.2,0l-0.2,0c-0.1,0-0.1,0-0.2,0
		c-0.3,0-0.5,0-0.8,0.1l-0.3,0l-0.1,0c-0.2,0-0.3,0-0.5,0.1c-0.1,0-0.2,0.1-0.4,0.1c-0.2,0-0.3,0.1-0.4,0.1
		c-0.2,0.1-0.5,0.3-0.7,0.5c-0.2,0.3-0.3,0.7-0.4,1.1c0,0.2,0,0.3,0,0.5c0,0.2,0.1,0.4,0.1,0.6c0.1,0.2,0.1,0.5,0.2,0.7
		c0.1,0.2,0.1,0.3,0.2,0.5c0.1,0.2,0.1,0.4,0.1,0.6c0,0.1,0,0.2,0,0.3l-0.1,0.1c-0.1,0.1-0.2,0.1-0.4,0.2l-0.1,0
		c-0.1,0-0.2,0.1-0.3,0.1c-0.2,0.1-0.3,0.2-0.4,0.4c-0.1,0.2-0.2,0.4-0.3,0.6c-0.1,0.2-0.1,0.5,0,0.7c0,0.2,0.1,0.4,0.3,0.6
		c0.1,0.1,0.2,0.2,0.2,0.3l0.2,0.2c0.2,0.1,0.3,0.3,0.4,0.5c0,0.1,0.1,0.1,0.1,0.2c0,0.1,0,0.1,0,0.2c0,0.1,0,0.1,0,0.2l0,0.1
		l-0.1,0.1c0,0-0.1,0-0.1,0.1c-0.1,0.1-0.2,0.1-0.3,0.1l-0.1,0c-0.1,0-0.3,0.1-0.4,0.1c-0.1,0-0.1,0.1-0.1,0.1
		c0,0.1-0.1,0.1-0.1,0.1c-0.1,0.1-0.1,0.3-0.1,0.4c0,0.2,0,0.4,0.1,0.6c0,0.1,0.1,0.1,0.1,0.2l0.1,0.2c0.1,0.2,0.3,0.5,0.4,0.8
		c0,0,0,0.1,0,0.2c0,0.1,0,0.2,0,0.3c0,0.1,0,0.2,0,0.3l0,0.1c-0.1,0.1-0.2,0.2-0.2,0.2c-0.1,0-0.2,0.1-0.3,0.1l-0.3,0.1
		c-0.2,0.1-0.5,0.1-0.7,0.2c-0.1,0-0.2,0.1-0.3,0.2c-0.1,0.1-0.2,0.3-0.2,0.3c0,0.1-0.1,0.1-0.1,0.2c0,0.1,0,0.2-0.1,0.3
		c0,0.1,0,0.2,0,0.3c0,0.1,0.1,0.2,0.1,0.3c0.1,0.2,0.2,0.4,0.3,0.6c0.1,0.2,0.3,0.4,0.4,0.7l0.1,0.2l0.1,0.1
		c0.1,0.1,0.2,0.3,0.3,0.4l0.1,0.1c0,0,0,0.1,0,0.1c0,0.1,0,0.1,0,0.1c-0.1,0.1-0.1,0.2-0.2,0.2c0,0-0.1,0-0.1,0.1l-0.2,0.1
		c-0.1,0.1-0.1,0.1-0.2,0.2c-0.1,0.1-0.1,0.2-0.1,0.4c0,0.1,0,0.1,0,0.2l0,0.3c0,0.2,0,0.4,0,0.6c0,0.2,0.1,0.4,0.2,0.6
		c0.1,0.2,0.2,0.4,0.3,0.6l0.2,0.4l0.1,0.1l0.1,0.1c0.1,0.2,0.2,0.3,0.2,0.5c0.1,0.2,0.1,0.4,0.1,0.6c0,0.1,0,0.2,0,0.2
		c0,0.1-0.1,0.2-0.1,0.2c-0.1,0.2-0.1,0.2-0.1,0.3c0,0.1-0.1,0.2-0.1,0.4c0,0.3,0,0.6,0,0.9c0,0.2,0.1,0.4,0.1,0.6
		c0.1,0.2,0.1,0.3,0.2,0.5c0.1,0.2,0.2,0.5,0.4,0.7l0.1,0.3l0.1,0.2c0.1,0.3,0.3,0.6,0.5,0.8l0.2,0.3c0.1,0.2,0.3,0.5,0.4,0.7
		c0.2,0.4,0.4,0.7,0.6,1.1c0.2,0.3,0.3,0.5,0.5,0.8l0.1,0.1c0.1,0.2,0.3,0.4,0.3,0.6c0,0.1,0,0.2,0,0.3c0,0.1,0,0.2,0,0.3
		c0,0.1,0,0.2,0,0.3c0,0.3,0,0.5,0,0.7c0,0.1,0,0.2,0.1,0.3c0.1,0.2,0.1,0.4,0.2,0.5c0.1,0.3,0.3,0.5,0.4,0.7
		c0.2,0.3,0.4,0.6,0.6,0.9c0.3,0.3,0.5,0.6,0.8,0.9l0.1,0.1l0.2,0.2l0.2,0.2c0.2,0.2,0.3,0.3,0.5,0.5l0.3,0.3l0.2,0.2
		c0.1,0.1,0.2,0.2,0.3,0.4l0.2,0.2c0.2,0.2,0.4,0.4,0.6,0.6l0.2,0.2l0.2,0.2c0.2,0.2,0.4,0.4,0.6,0.6l0.1,0.1
		c0.1,0.1,0.2,0.2,0.3,0.3c0.2,0.2,0.3,0.4,0.4,0.6l0.1,0.2l0.1,0.1c0.1,0.2,0.3,0.4,0.4,0.6c0.1,0.1,0.1,0.2,0.1,0.3
		c0,0.1,0.1,0.2,0.1,0.3l0,0.1l-0.1,0.1c-0.1,0.1-0.2,0.1-0.3,0.2c-0.1,0-0.2,0.1-0.3,0.1c-0.2,0.1-0.5,0.1-0.8,0.1
		c-0.2,0-0.5,0-0.7,0l-0.6,0c-0.2,0-0.3,0-0.5,0H445l-0.4,0c-0.3,0-0.5,0-0.8,0h-0.4l-0.4,0c-0.2,0-0.4,0-0.6,0l-0.2,0
		c-0.3,0-0.6,0-0.8,0c-0.4,0-0.7,0-1.1,0.1l-0.3,0l-0.2,0c-0.2,0-0.3,0-0.5,0c-0.4,0-0.7,0-0.9,0.1l-0.3,0c-0.4,0-0.8,0.1-1.2,0.1
		l-0.2,0l-0.3,0l-0.3,0H436h-0.1h-0.1l-0.1,0c-0.2,0-0.4,0-0.6,0l-0.2,0l-0.2,0l-0.2,0l-0.3,0c-0.6,0-1.3,0-1.9,0l-0.2,0
		c-0.2,0-0.3,0-0.5,0l-0.3,0l-0.6,0l-0.4,0c-0.6,0-1.3,0.1-1.9,0.1c-0.2,0-0.4,0-0.6,0l-0.3,0l-0.3,0l-0.4,0l-0.3,0
		c-0.2,0-0.4,0-0.6,0c-0.2,0-0.4,0-0.6,0c-0.2,0-0.4,0-0.6,0.1c-0.5,0.1-1,0.2-1.4,0.3c-0.4,0.1-0.8,0.3-1.1,0.5
		c-0.3,0.2-0.5,0.4-0.7,0.7c-0.1,0.1-0.1,0.2-0.2,0.4c-0.1,0.1-0.1,0.3-0.1,0.5c-0.1,0.2-0.1,0.4-0.1,0.7c0,0.1,0,0.2,0,0.3
		c0,0.1,0,0.2,0.1,0.3c0,0.1,0.1,0.2,0.1,0.3c0.1,0.1,0.1,0.2,0.1,0.3c0.1,0.3,0.2,0.5,0.4,0.7c0.1,0.1,0.1,0.2,0.2,0.3
		c0.1,0.1,0.1,0.1,0.1,0.2c0,0,0.1,0.1,0.1,0.2c0,0,0,0.1,0,0.1v0.1c0,0.1-0.1,0.2-0.1,0.3c0,0-0.1,0.1-0.1,0.2
		c-0.1,0.1-0.1,0.1-0.2,0.2c-0.2,0.1-0.3,0.3-0.5,0.4l-0.2,0.2l-0.1,0.1c-0.1,0.1-0.3,0.2-0.4,0.3c-0.2,0.2-0.4,0.4-0.5,0.7
		c-0.1,0.2-0.1,0.4,0,0.6c0.1,0.4,0.2,0.8,0.4,1l0.2,0.3l0.1,0.1c0.1,0.2,0.2,0.3,0.4,0.5c0.1,0.1,0.1,0.2,0.2,0.3
		c0,0.1,0.1,0.2,0.1,0.3l0.1,0.4l0.1,0.3l0,0.2c0,0.1,0.1,0.2,0.1,0.3c0,0.2,0,0.3,0,0.5c0,0.2,0,0.3,0,0.5c0,0.2,0,0.3,0,0.4
		c0,0.3,0.2,0.5,0.4,0.8c0.1,0.1,0.2,0.2,0.2,0.3c0.1,0.1,0.2,0.2,0.2,0.3c0.1,0.1,0.2,0.2,0.3,0.3c0.1,0.1,0.3,0.2,0.4,0.3l0.3,0.2
		c0.1,0.1,0.2,0.2,0.3,0.2c0.1,0.1,0.1,0.1,0.2,0.2c0.1,0.1,0.1,0.2,0.1,0.3c0,0.1,0,0.2,0,0.4c0,0.1,0,0.2,0,0.3l0,0.1
		c0,0.2-0.1,0.3-0.1,0.5c0,0.2,0,0.3,0.1,0.5c0,0.1,0.1,0.2,0.1,0.3c0,0.1,0.1,0.2,0.1,0.3c0,0.1,0.1,0.1,0.1,0.2
		c0,0,0.1,0.1,0.1,0.1c0.2,0.2,0.3,0.3,0.5,0.3c0.1,0.1,0.2,0.1,0.4,0.1c0.2,0.1,0.3,0.1,0.5,0.1c0.1,0,0.2,0,0.3,0
		c0.2,0,0.4,0,0.6,0l0.2,0l0.1,0c0.3,0,0.4,0,0.6,0c0.1,0,0.1,0,0.2,0l0.2,0.1l0,0.1c0,0.1,0.1,0.2,0.1,0.2c0,0.1,0.1,0.2,0.1,0.3
		c0.1,0.1,0.1,0.3,0.2,0.4l0.1,0.2l0,0.1l0.1,0.1c0.1,0.1,0.1,0.2,0.2,0.3c0.1,0.1,0.2,0.2,0.2,0.2c0.1,0.1,0.3,0.2,0.4,0.2
		c0.3,0.1,0.6,0.2,0.9,0.3c0.2,0,0.4,0.1,0.6,0.1h0.1l0.3,0l0.4,0c0.2,0,0.3,0,0.4,0c0.1,0,0.2,0.1,0.3,0.1c0.1,0,0.1,0.1,0.2,0.1
		c0.1,0.1,0.1,0.2,0.2,0.3c0,0.1,0.1,0.2,0.1,0.3c0,0.1,0.1,0.3,0.1,0.4c0.1,0.3,0.2,0.5,0.3,0.8c0.1,0.2,0.2,0.3,0.3,0.5
		c0.1,0.2,0.3,0.3,0.4,0.5c0.1,0.1,0.2,0.1,0.3,0.2c0.2,0.1,0.4,0.1,0.5,0.2c0.2,0,0.4,0.1,0.5,0.1c0.3,0,0.5,0,0.7-0.1
		c0.2,0,0.4-0.1,0.6-0.1c0.2,0,0.4-0.1,0.6-0.1c0.1,0,0.3-0.1,0.4-0.1c0.1,0,0.2,0,0.4,0c0.1,0,0.2,0,0.3,0c0.1,0,0.1,0,0.2,0.1
		c0.1,0.1,0.2,0.1,0.2,0.1c0.1,0,0.1,0.1,0.1,0.1c0.1,0.1,0.2,0.2,0.2,0.3c0.1,0.1,0.2,0.2,0.2,0.3c0.2,0.2,0.4,0.3,0.6,0.5
		c0.1,0.1,0.2,0.1,0.4,0.1c0.1,0,0.1,0,0.2,0h0.2c0.3,0,0.5,0,0.7-0.1c0.3-0.1,0.7-0.3,0.9-0.5c0.1-0.1,0.3-0.2,0.4-0.3
		c0.2-0.1,0.3-0.2,0.5-0.4c0.2-0.1,0.3-0.3,0.5-0.5c0.2-0.2,0.3-0.3,0.5-0.5c0.3-0.4,0.6-0.7,0.8-1l0.3-0.5c0.1-0.1,0.2-0.3,0.3-0.4
		c0.3-0.4,0.6-0.7,0.9-1.1l0.2-0.3c0.2-0.2,0.4-0.5,0.5-0.7l0.2-0.2l0.2-0.3c0.2-0.2,0.3-0.4,0.5-0.6l0.2-0.3l0.1-0.1
		c0.1-0.2,0.3-0.4,0.5-0.6l0.1-0.1c0.1-0.1,0.2-0.2,0.2-0.3c0.1-0.2,0.3-0.4,0.4-0.5l0.1-0.1c0.1-0.2,0.2-0.3,0.3-0.4
		c0.1-0.1,0.1-0.2,0.2-0.3l0.1-0.1l0.1-0.1c0.2-0.2,0.3-0.3,0.4-0.5l0.1-0.1l0.2-0.3c0.2-0.2,0.3-0.4,0.5-0.6l0.1-0.2l0.4-0.6
		l0.2-0.3c0.2-0.2,0.3-0.4,0.5-0.6l0.1-0.2l0.1-0.1c0.1-0.1,0.1-0.2,0.2-0.2c0.2-0.1,0.3-0.3,0.5-0.4l0.2-0.1
		c0.2-0.1,0.2-0.1,0.3-0.1l0.1,0l0.1,0.1c0,0.1,0.1,0.1,0.1,0.1c0,0,0,0.1,0,0.1c0,0.2,0,0.4,0,0.6c0,0.3,0,0.6,0,1
		c0,0.3,0.1,0.6,0.2,0.9c0,0,0,0.1,0,0.1c0.1,0.2,0.1,0.3,0.1,0.4c0,0.4,0,0.8,0,1.2c0,0.1,0,0.3,0,0.4l0,0.2c0,0.5,0,0.8,0,1.2
		c0,0.2,0.1,0.5,0.1,0.7c0.1,0.3,0.1,0.5,0.3,0.7c0.1,0.2,0.3,0.4,0.6,0.6c0.1,0.1,0.2,0.1,0.3,0.2c0.1,0,0.2,0.1,0.2,0.1
		c0,0,0.1,0,0.1,0l0.1,0l0.1,0c0.1,0.1,0.1,0.2,0.1,0.3c0,0.1,0.1,0.3,0.1,0.4c0,0.2,0.1,0.4,0.1,0.6c0,0.1,0,0.3,0,0.5l0,0.2l0,0.2
		c0,0.3,0,0.7,0.1,1c0,0.1,0.1,0.3,0.2,0.5c0.1,0.2,0.2,0.3,0.3,0.5c0.1,0.1,0.2,0.2,0.4,0.3c0.1,0.1,0.2,0.2,0.3,0.2
		c0.1,0.1,0.1,0.1,0.2,0.2c0.1,0.1,0.1,0.2,0.1,0.2c0.1,0.2,0.1,0.3,0.1,0.5l0,0.2l0.1,0.3c0,0.2,0.1,0.3,0.1,0.5c0,0.2,0,0.4,0,0.6
		c0,0.2,0,0.4,0,0.5c0,0.1,0,0.2,0,0.2c0,0.1,0,0.1,0,0.2c0,0.1,0,0.2,0,0.2c0,0.2,0.1,0.3,0.1,0.4c0.2,0.5,0.5,1,0.9,1.5
		c0.1,0.1,0.3,0.3,0.4,0.4l0.4,0.4c0.3,0.3,0.4,0.4,0.6,0.6c0.1,0.1,0.1,0.1,0.1,0.2c0.1,0.2,0.1,0.3,0.1,0.5c0,0.1,0,0.2,0,0.4
		c0,0.1,0,0.3,0,0.4c0,0.1,0,0.2,0.1,0.2c0,0.1,0.1,0.2,0.1,0.2c0.1,0.1,0.2,0.2,0.3,0.3c0.3,0.3,0.6,0.5,0.8,0.7l0.4,0.3l0.2,0.1
		l0.4,0.3l0.3,0.3c0.1,0.1,0.2,0.2,0.3,0.3c0.1,0.1,0.1,0.2,0.2,0.4c0.1,0.2,0.1,0.3,0.2,0.5c0,0.1,0,0.2,0,0.2c0,0.2,0,0.3,0.1,0.4
		l0,0.2c0,0.1,0,0.3,0,0.4l0,0.2c0,0.3,0,0.5,0.1,0.8c0,0.3,0.1,0.5,0.2,0.7c0.1,0.2,0.3,0.4,0.5,0.5l0.1,0.1
		c0.2,0.2,0.4,0.3,0.5,0.4c0.1,0,0.1,0.1,0.2,0.1c0.1,0,0.2,0.1,0.3,0.1c0.1,0,0.2,0,0.2,0c0.2,0,0.3,0,0.3,0c0.1,0,0.3,0,0.4,0
		l0.2,0c0.1,0,0.1,0,0.2,0l0.1,0c0.2,0,0.3,0.1,0.5,0.1l0.2,0c0.1,0,0.3,0.1,0.4,0.1c0.1,0,0.2,0.1,0.3,0.1l0.1,0.1
		c0.1,0.1,0.2,0.2,0.2,0.3c0,0,0.1,0.1,0.1,0.2c0,0.1,0.1,0.2,0.1,0.3c0,0.1,0.1,0.2,0.1,0.2l0.1,0.2c0.1,0.2,0.1,0.4,0.2,0.7
		l0.1,0.2c0,0.1,0,0.1,0.1,0.2c0.1,0.2,0.2,0.4,0.3,0.6l0.1,0.1c0.2,0.2,0.3,0.5,0.5,0.6c0.1,0.1,0.3,0.2,0.4,0.3l0.1,0.1l0.2,0.1
		l0.1,0.1c0.2,0.1,0.2,0.2,0.3,0.2l0.1,0.1l0.1,0.1c0.2,0.1,0.4,0.2,0.6,0.4c0.1,0.1,0.2,0.2,0.3,0.3c0.2,0.2,0.2,0.4,0.3,0.5
		c0,0.1,0.1,0.2,0.1,0.4c0,0.2,0.1,0.3,0.1,0.4c0.1,0.2,0.2,0.3,0.4,0.5c0.1,0.1,0.3,0.3,0.5,0.4l0.2,0.1c0.1,0.1,0.2,0.1,0.3,0.2
		c0.1,0,0.1,0.1,0.2,0.1l0.2,0.1l0.1,0.1l0.1,0c0.1,0,0.1,0.1,0.2,0.1c0.1,0,0.2,0.1,0.2,0.1c0.1,0,0.1,0.1,0.2,0.1
		c0.1,0.1,0.2,0.2,0.3,0.3c0.1,0.1,0.2,0.2,0.3,0.3c0.1,0.2,0.3,0.4,0.4,0.6c0.1,0.3,0.2,0.5,0.4,0.8c0.1,0.2,0.2,0.5,0.4,0.7
		l0.1,0.1c0.1,0.1,0.2,0.3,0.3,0.4c0.1,0.1,0.2,0.2,0.4,0.3c0.1,0.1,0.3,0.2,0.4,0.3c0.2,0.1,0.5,0.3,0.7,0.4
		c0.1,0.1,0.3,0.1,0.4,0.2l0.3,0.1l0.2,0.1c0.1,0.1,0.2,0.1,0.3,0.2c0.1,0,0.2,0.1,0.3,0.1l0.2,0.1c0.1,0.1,0.3,0.1,0.5,0.2l0.1,0.1
		c0.1,0.1,0.3,0.1,0.4,0.2c0.1,0.1,0.2,0.2,0.3,0.3c0.2,0.2,0.3,0.4,0.4,0.7c0.1,0.3,0.3,0.5,0.4,0.8l0.1,0.3
		c0.1,0.3,0.2,0.5,0.3,0.8c0.1,0.2,0.2,0.3,0.3,0.5c0.1,0.1,0.1,0.1,0.2,0.2c0.1,0.1,0.2,0.2,0.4,0.2c0,0,0,0,0.1,0
		c0.1,0,0.1,0,0.2,0c0.1,0,0.2-0.1,0.3-0.2c0.1-0.1,0.2-0.2,0.3-0.3l0.2-0.2l0.1-0.2c0.1-0.1,0.2-0.2,0.3-0.3
		c0.1-0.1,0.1-0.1,0.2-0.1c0.2,0.2,0.4,0.4,0.5,0.5c0.2,0.3,0.4,0.7,0.6,1.2c0.1,0.3,0.2,0.6,0.3,1l0.1,0.3c0.1,0.5,0.3,0.9,0.5,1.4
		c0.2,0.5,0.3,0.9,0.5,1.3c0.2,0.4,0.4,0.8,0.6,1.2c0.1,0.1,0.1,0.2,0.2,0.3c0.1,0.1,0.1,0.2,0.2,0.3c0.1,0.2,0.3,0.3,0.5,0.5
		l0.1,0.1l0.1,0.1c0.1,0.1,0.2,0.1,0.3,0.1c0.1,0,0.1,0.1,0.2,0.1c0,0,0,0,0,0c0.1,0,0.1,0,0.2,0c0.1,0,0.2-0.1,0.2-0.1
		c0.1-0.1,0.2-0.2,0.3-0.3c0.1-0.2,0.2-0.3,0.2-0.5c0.1-0.2,0.1-0.4,0.1-0.6c0-0.2,0-0.5,0-0.7c0-0.2-0.1-0.5-0.1-0.7
		c-0.1-0.2-0.1-0.4-0.2-0.6c0-0.2-0.1-0.4-0.1-0.5c0-0.2-0.1-0.5-0.2-0.7l0-0.1l0-0.1l-0.1-0.3c-0.1-0.2-0.1-0.4-0.2-0.6
		c0-0.1-0.1-0.3-0.1-0.4l0-0.2c0-0.1-0.1-0.2-0.1-0.3l-0.1-0.3l0-0.1c0-0.2-0.1-0.4-0.1-0.5c0-0.2,0-0.4,0-0.6c0-0.1,0-0.2,0.1-0.3
		l0.1-0.1l0.1,0l0.1,0c0.1,0,0.1,0.1,0.2,0.1c0.2,0.2,0.4,0.4,0.6,0.6c0.2,0.3,0.4,0.6,0.6,0.9l0.2,0.4c0.1,0.1,0.1,0.3,0.2,0.4
		c0.2,0.4,0.4,0.9,0.5,1.3c0.2,0.4,0.4,0.9,0.6,1.3c0.2,0.4,0.4,0.9,0.7,1.3c0.2,0.3,0.4,0.7,0.6,1c0.1,0.2,0.3,0.3,0.4,0.5
		c0.2,0.2,0.3,0.3,0.5,0.5c0.2,0.2,0.4,0.3,0.6,0.5c0.2,0.2,0.4,0.3,0.6,0.4c0.1,0.1,0.2,0.1,0.3,0.1c0.1,0,0.2,0.1,0.3,0.1
		c0.2,0,0.3-0.1,0.3-0.2c0-0.1,0.1-0.2,0.1-0.3c0-0.1,0-0.3,0-0.4l0-0.4c0-0.2,0-0.4-0.1-0.6c0-0.2-0.1-0.5-0.2-0.7
		c-0.1-0.4-0.3-0.7-0.4-1l-0.1-0.1l-0.2-0.4l-0.1-0.3l-0.1-0.3c-0.2-0.4-0.3-0.8-0.5-1.1c-0.1-0.3-0.3-0.6-0.4-0.8
		c-0.1-0.3-0.3-0.6-0.4-0.9c-0.2-0.5-0.4-1-0.5-1.5c-0.1-0.2-0.1-0.4-0.2-0.6c0-0.1-0.1-0.2-0.1-0.3l0-0.2c0-0.1,0-0.2,0-0.2l0-0.1
		c0.2,0.2,0.3,0.4,0.5,0.6c0.3,0.3,0.5,0.6,0.7,0.8c0.2,0.3,0.5,0.7,0.7,1l0.1,0.2l0.2,0.4c0.1,0.2,0.2,0.4,0.3,0.6
		c0.2,0.4,0.5,0.8,0.8,1.2l0.1,0.1l0.1,0.1l0.2,0.3l0.2,0.3l0.1,0.2l0.1,0.1c0.2,0.2,0.4,0.5,0.6,0.7l0.1,0.1l0.2,0.2l0.3,0.4
		l0.2,0.2c0.2,0.2,0.3,0.4,0.5,0.5c0.3,0.3,0.7,0.7,1.1,1c0.2,0.2,0.4,0.3,0.6,0.5c0.1,0.1,0.2,0.1,0.3,0.2l0.1,0l0.3,0.1
		c0.1,0.1,0.3,0.1,0.4,0.1c0.3,0.1,0.5,0.2,0.7,0.2c0.1,0,0.2,0,0.3,0c0.1,0,0.2,0,0.3-0.1l0.1-0.1c0.1,0,0.1-0.1,0.1-0.1
		c0-0.1,0-0.2,0-0.3c0-0.1-0.1-0.3-0.2-0.4l-0.1-0.1c-0.1-0.1-0.1-0.2-0.2-0.3c-0.2-0.3-0.4-0.5-0.6-0.8l-0.1-0.2l-0.1-0.1l-0.1-0.1
		l-0.2-0.2l-0.3-0.5l-0.2-0.3l-0.1-0.1l-0.2-0.3c-0.2-0.3-0.4-0.6-0.7-0.9c-0.2-0.3-0.4-0.5-0.7-0.8c-0.2-0.3-0.4-0.5-0.7-0.8
		c-0.3-0.4-0.5-0.7-0.8-1.1c-0.1-0.2-0.3-0.4-0.4-0.6c-0.1-0.2-0.3-0.4-0.4-0.6l-0.5-0.8l-0.2-0.3c-0.3-0.4-0.5-0.7-0.6-1.1
		c0-0.1-0.1-0.2-0.1-0.3l0.2,0.2l0.1,0.1l0.2,0.2c0.1,0.1,0.2,0.1,0.2,0.2l0.7,0.7l0.3,0.3l0.2,0.2c0.6,0.6,1.2,1.3,1.9,1.9
		c0.3,0.3,0.7,0.7,1.1,1l0.4,0.3c0.2,0.2,0.5,0.4,0.7,0.6l0.2,0.1l0.4,0.3c0.2,0.1,0.3,0.2,0.5,0.4l0.1,0.1l0.3,0.2
		c0.3,0.2,0.5,0.4,0.8,0.6c0.3,0.2,0.7,0.5,1.2,0.7c0.2,0.1,0.4,0.1,0.6,0.2c0,0,0.1,0,0.1,0c0,0,0,0,0,0c0.1,0,0.1,0,0.2,0
		c0.1,0,0.1,0,0.2-0.1c0.1,0,0.1-0.1,0.1-0.1c0-0.1,0.1-0.2,0.1-0.2l0-0.1c0-0.1,0-0.1,0-0.2c-0.1-0.1-0.1-0.2-0.1-0.2
		c-0.1-0.2-0.3-0.3-0.4-0.4c-0.1-0.1-0.2-0.1-0.3-0.2l-0.2-0.2c-0.1-0.1-0.2-0.2-0.3-0.3l-0.2-0.2c-0.2-0.2-0.3-0.3-0.4-0.4
		l-0.3-0.3l-0.3-0.3c-0.3-0.3-0.7-0.7-1-1l-0.5-0.5c-0.2-0.2-0.4-0.4-0.5-0.6l-0.4-0.5c-0.2-0.2-0.3-0.3-0.5-0.5l-0.1-0.1l-0.1-0.1
		c-0.3-0.3-0.6-0.6-0.8-0.9c-0.2-0.2-0.4-0.4-0.6-0.7l-0.2-0.3l-0.2-0.3l-0.2-0.2l-0.1-0.2l-0.2-0.2l-0.2-0.3
		c-0.1-0.2-0.2-0.3-0.4-0.5c-0.1-0.2-0.2-0.4-0.3-0.6l0-0.2c0.1,0,0.1,0,0.2,0.1c0.1,0.1,0.3,0.2,0.4,0.3l0.2,0.1l0.1,0.1l0.1,0.1
		l0.2,0.2c0.1,0.1,0.3,0.3,0.5,0.4c0.2,0.1,0.4,0.3,0.6,0.5l0.5,0.5l0.5,0.5c0.2,0.1,0.4,0.3,0.5,0.4c0.2,0.1,0.3,0.2,0.5,0.3
		l0.3,0.2l0.3,0.2l0.6,0.4c0.2,0.1,0.4,0.3,0.5,0.4c0.2,0.1,0.4,0.2,0.5,0.3c0.3,0.2,0.5,0.3,0.8,0.5l0.3,0.2
		c0.4,0.2,0.7,0.4,1.1,0.7c0.1,0.1,0.3,0.1,0.4,0.2c0.2,0.1,0.3,0.1,0.4,0.2c0,0,0.1,0,0.1,0c0.2,0,0.2,0,0.3-0.1
		c0,0,0.1-0.1,0.1-0.1c0,0,0.1-0.1,0.1-0.2c0-0.1,0-0.1,0-0.2c0-0.1,0-0.1-0.1-0.2c-0.1-0.1-0.1-0.2-0.2-0.3
		c-0.2-0.2-0.3-0.4-0.5-0.6c-0.5-0.5-0.9-0.9-1.4-1.2l-0.2-0.1l-0.2-0.1c-0.1-0.1-0.2-0.1-0.3-0.2l-0.2-0.1l-0.1-0.1
		c-0.1-0.1-0.2-0.1-0.3-0.2l-0.2-0.1l-0.2-0.1c-0.2-0.2-0.5-0.4-0.7-0.6c-0.1-0.1-0.3-0.3-0.4-0.4l-0.1-0.1l-0.3-0.3
		c-0.1-0.1-0.3-0.2-0.4-0.4l-0.2-0.1l-0.2-0.2l-0.4-0.4l-0.2-0.2l-0.3-0.3c-0.5-0.6-1.1-1.1-1.6-1.7l-0.2-0.2l-0.1-0.1
		c-0.2-0.2-0.3-0.3-0.5-0.5c-0.2-0.3-0.5-0.5-0.7-0.8c0-0.1-0.1-0.2-0.2-0.3l0.2,0c0.2,0,0.5,0.1,0.8,0.2c0.2,0.1,0.4,0.2,0.6,0.3
		l0.2,0.1c0.2,0.1,0.5,0.2,0.7,0.4c0.5,0.3,1,0.7,1.4,1c0.2,0.2,0.4,0.3,0.6,0.4c0.1,0,0.1,0.1,0.2,0.1l0.2,0c0,0,0,0,0,0
		c0.1,0,0.2,0,0.3-0.1c0.1-0.1,0.1-0.1,0.1-0.3c0-0.1,0-0.1,0-0.2c-0.1-0.2-0.2-0.3-0.2-0.4c-0.1-0.1-0.2-0.3-0.4-0.4
		c-0.2-0.2-0.3-0.3-0.5-0.5l-0.1-0.1c-0.1-0.1-0.3-0.2-0.4-0.4l-0.5-0.5l-0.9-0.9l-0.9-0.9c-0.3-0.3-0.6-0.7-1-1l-0.3-0.3l-0.1-0.1
		l-0.2-0.2L501,370l-0.1-0.1l-0.2-0.2c-0.2-0.2-0.4-0.4-0.6-0.7l-0.2-0.3l-0.3-0.4c-0.2-0.3-0.3-0.5-0.5-0.7
		c-0.1-0.1-0.2-0.3-0.2-0.4l-0.2-0.3l-0.2-0.3c-0.1-0.2-0.2-0.3-0.3-0.5c-0.2-0.4-0.3-0.7-0.5-1.1l-0.2-0.5l-0.3-0.6
		c-0.2-0.3-0.3-0.7-0.5-1c-0.1-0.3-0.3-0.7-0.4-1.1l-0.1-0.2c-0.1-0.4-0.3-0.7-0.4-1.1l-0.1-0.3l-0.1-0.3l-0.1-0.2
		c0-0.2-0.1-0.3-0.1-0.5c-0.1-0.2-0.1-0.4-0.2-0.6c0-0.1-0.1-0.3-0.1-0.4l-0.1-0.2c-0.1-0.2-0.1-0.4-0.2-0.6
		c-0.1-0.2-0.1-0.4-0.1-0.5l0-0.1c-0.1-0.5-0.3-0.9-0.4-1.4c0-0.1-0.1-0.3-0.1-0.4l-0.1-0.2l-0.1-0.2c0-0.1-0.1-0.2-0.1-0.3
		c-0.1-0.2-0.1-0.4-0.2-0.6l-0.2-0.4c-0.2-0.5-0.4-0.9-0.5-1.3c-0.1-0.2-0.2-0.3-0.3-0.5l-0.1-0.1c-0.2-0.3-0.3-0.5-0.5-0.7
		l-0.1-0.2l-0.2-0.3c-0.2-0.3-0.3-0.5-0.5-0.8c-0.1-0.2-0.3-0.4-0.4-0.5l-0.1-0.1l-0.2-0.2l-0.3-0.4l-0.1-0.2l-0.1-0.1
		c0,0-0.1-0.1-0.1-0.2l-0.1-0.1l-0.2-0.2l-0.2-0.3l-0.1-0.1l-0.1-0.1c-0.1-0.2-0.3-0.4-0.4-0.6l-0.3-0.4l-0.1-0.2l-0.3-0.4l-0.2-0.3
		l-0.1-0.1l-0.2-0.2c-0.2-0.2-0.3-0.5-0.5-0.7l-0.1-0.2l-0.1-0.2c-0.1-0.2-0.3-0.4-0.4-0.6l-0.2-0.4l-0.1-0.2
		c-0.1-0.2-0.3-0.4-0.4-0.6c-0.1-0.2-0.2-0.4-0.4-0.6l-0.1-0.3l-0.1-0.3l0-0.1l-0.1-0.1c-0.1-0.1-0.1-0.2-0.2-0.4l-0.2-0.4
		c-0.1-0.2-0.2-0.4-0.3-0.6c-0.1-0.2-0.1-0.3-0.2-0.5l-0.1-0.4l0-0.1c-0.1-0.4-0.2-0.7-0.3-1.1l-0.1-0.3l0-0.1
		c0-0.2-0.1-0.4-0.1-0.6c-0.1-0.3-0.1-0.7-0.2-1l0-0.1l0-0.2l0-0.2c0-0.2,0-0.4,0-0.6c0-0.2,0-0.4,0-0.6l0-0.3l0-0.2l0-0.1
		c0-0.1,0-0.1,0.1-0.2l0-0.1l0-0.1c0-0.1,0.1-0.2,0.1-0.2c0.1-0.1,0.1-0.2,0.2-0.3c0,0,0.1-0.1,0.1-0.1c0,0,0.1-0.1,0.1-0.1
		c0.1-0.1,0.2-0.2,0.2-0.3c0,0,0.1-0.1,0.1-0.1l0.1-0.1l0.2-0.2l0.1-0.1c0.2-0.1,0.3-0.2,0.3-0.3c0.1-0.1,0.2-0.1,0.3-0.2
		c0.1-0.1,0.2-0.2,0.4-0.3c0.1-0.1,0.2-0.2,0.4-0.3c0.1,0,0.1-0.1,0.1-0.1l0.3-0.2l0.1,0l0.1,0l0.1-0.1c0.2-0.1,0.3-0.1,0.4-0.2
		l0.3-0.1c0.1-0.1,0.3-0.1,0.4-0.2l0.3-0.1c0.1,0,0.2-0.1,0.3-0.1c0.1-0.1,0.3-0.1,0.4-0.2l0.2-0.1l0.2-0.1l0.3-0.1l0.2-0.1
		c0.2-0.1,0.4-0.1,0.5-0.2c0.2-0.1,0.3-0.1,0.5-0.2l0.3-0.1l0.2-0.1c0.2-0.1,0.4-0.2,0.6-0.2c0.2,0,0.3-0.1,0.4-0.1l0.3,0l0.3,0
		c0.3,0,0.6-0.1,0.8-0.2c0.2-0.1,0.3-0.1,0.5-0.2l0.2-0.1l0.2-0.1c0.1,0,0.2-0.1,0.3-0.1c0.1-0.1,0.2-0.1,0.3-0.2
		c0.1-0.1,0.2-0.2,0.2-0.3c0-0.1,0-0.1,0.1-0.2l0-0.1c0-0.1,0-0.2,0-0.3c-0.1-0.2-0.2-0.4-0.3-0.5l-0.1-0.1l-0.1-0.1
		c-0.1-0.1-0.2-0.2-0.3-0.3l-0.1-0.1l-0.1-0.1c0,0-0.1-0.1-0.1-0.1l-0.1-0.1l-0.1-0.1c-0.1-0.1-0.2-0.1-0.2-0.2l-0.1-0.1l-0.2-0.1
		l-0.1-0.1c0,0-0.1-0.1-0.2-0.1c-0.1-0.1-0.2-0.1-0.3-0.2c-0.1,0-0.1-0.1-0.2-0.1c0,0-0.1,0-0.1,0l-0.1,0l-0.2-0.1l-0.2-0.1
		c-0.2-0.1-0.3-0.1-0.5-0.2c-0.1,0-0.2-0.1-0.3-0.1l-0.1,0c-0.3-0.1-0.6-0.2-0.9-0.2l-0.2,0l-0.5-0.1l-0.2-0.1
		c-0.2-0.1-0.5-0.1-0.7-0.2c-0.1,0-0.2-0.1-0.4-0.1l-0.2-0.1l-0.1-0.1c-0.1-0.1-0.2-0.1-0.3-0.2c-0.1-0.1-0.2-0.1-0.3-0.2l-0.2-0.1
		c-0.4-0.3-0.7-0.4-1-0.6c-0.1-0.1-0.3-0.1-0.4-0.1l-0.2-0.1l-0.2-0.1c-0.3-0.1-0.5-0.2-0.8-0.2c-0.1,0-0.3-0.1-0.4-0.1
		c-0.1,0-0.3,0-0.4-0.1l-0.1,0c-0.1,0-0.2,0-0.2,0c-0.2,0-0.5-0.1-0.7-0.1l-0.2,0l-0.1,0l-0.1,0l-0.1,0c-0.3,0-0.4,0-0.6,0h-0.2
		c-0.1,0-0.2,0-0.3,0l-0.1,0l-0.1,0l-0.2,0l-0.1,0l-0.3,0l-0.2,0l-0.2,0l-0.2,0c-0.1,0-0.2,0-0.2,0l-0.1,0l-0.1,0
		c-0.1,0-0.1,0-0.2,0c-0.1,0-0.2,0-0.2,0l-0.1,0c-0.2,0-0.4-0.1-0.6-0.1c-0.1,0-0.3-0.1-0.4-0.1c-0.1,0-0.2-0.1-0.3-0.1
		c-0.1,0-0.1-0.1-0.2-0.1l-0.1-0.1l-0.5-0.3c-0.1-0.1-0.1-0.1-0.2-0.2c-0.1-0.1-0.1-0.1-0.2-0.1l-0.1-0.2l-0.5-0.6
		c-0.4-0.5-0.7-0.9-1-1.4c-0.1-0.2-0.3-0.5-0.4-0.8l-0.1-0.2l-0.1-0.2c-0.1-0.2-0.2-0.3-0.2-0.5c-0.2-0.4-0.3-0.6-0.4-0.9
		c-0.1-0.3-0.2-0.7-0.4-1l-0.1-0.6l-0.1-0.5c-0.1-0.4-0.2-0.9-0.3-1.3c0-0.2-0.1-0.5-0.1-0.7l0-0.2c0-0.2-0.1-0.4-0.1-0.5
		c0-0.3-0.1-0.5-0.1-0.7l0-0.3c0-0.2,0-0.3-0.1-0.5l0-0.2c0-0.1,0-0.3-0.1-0.4l-0.1-0.7l0-0.1c0-0.2-0.1-0.4-0.1-0.6
		c-0.1-0.2-0.1-0.5-0.1-0.7c-0.1-0.4-0.2-0.9-0.3-1.3l-0.2-0.7c0-0.2-0.1-0.4-0.1-0.6l0-0.1c-0.1-0.3-0.2-0.6-0.3-0.9
		c-0.1-0.3-0.2-0.6-0.3-0.9c0-0.1,0-0.1-0.1-0.2l-0.1-0.2l-0.1-0.3l0-0.1c-0.1-0.2-0.2-0.4-0.3-0.5c-0.1-0.2-0.2-0.4-0.3-0.6
		c-0.1-0.1-0.1-0.2-0.2-0.3l-0.2-0.3l-0.2-0.3l-0.2-0.3l-0.2-0.3l-0.2-0.3c-0.2-0.3-0.4-0.7-0.5-1l-0.2-0.4
		c-0.1-0.3-0.3-0.5-0.4-0.8l-0.2-0.4c-0.3-0.5-0.5-1-0.7-1.6c-0.1-0.5-0.2-0.8-0.2-1.2l0-0.2l0-0.2c0-0.3,0-0.6,0-1c0-0.5,0-1,0-1.4
		c0-0.3,0-0.6,0-0.8l0-0.6c0-0.1,0-0.3,0-0.4l0-0.2l0-0.4l0-0.3c0-0.5,0-1-0.1-1.4c0-0.2-0.1-0.5-0.1-0.7l0-0.3l0-0.3
		c0-0.2-0.1-0.5-0.1-0.7c0-0.3-0.1-0.5-0.2-0.8c-0.1-0.2-0.1-0.4-0.2-0.6c0-0.1-0.1-0.1-0.1-0.2c-0.1-0.1-0.1-0.2-0.2-0.2
		c-0.1-0.1-0.1-0.1-0.2-0.1c-0.1,0-0.1-0.1-0.2-0.1c-0.1,0-0.1,0-0.2,0l-0.2,0c-0.1,0-0.1,0-0.2,0c-0.1,0-0.2,0.1-0.2,0.1
		c-0.1,0.1-0.1,0.2-0.2,0.3c0,0.1-0.1,0.2-0.1,0.2c-0.1,0.2-0.2,0.5-0.3,0.9c0,0.1-0.1,0.2-0.1,0.4l0,0.1c0,0.2-0.1,0.4-0.1,0.6
		c0,0.1,0,0.3,0,0.4v0.1c0,0.2,0,0.4,0,0.6c0,0.4,0,0.8,0,1.1c0,0.2,0,0.4,0,0.5c0,0.2,0,0.4-0.1,0.6c0,0.2-0.1,0.3-0.2,0.5
		c-0.1,0-0.1-0.1-0.2-0.2c-0.1-0.1-0.2-0.3-0.3-0.5l-0.1-0.2l-0.2-0.4c-0.1-0.2-0.2-0.5-0.4-0.7l-0.3-0.6l-0.1-0.2
		c0-0.1-0.1-0.2-0.1-0.2l-0.1-0.1l-0.2-0.4c-0.1-0.3-0.2-0.6-0.3-0.8c-0.2-0.5-0.3-1-0.5-1.5l0-0.1l0-0.1c0,0,0-0.1,0-0.1
		c-0.1-0.5-0.3-0.9-0.4-1.4L460,277l-0.1-0.2c-0.1-0.4-0.2-0.9-0.3-1.3c-0.1-0.5-0.2-1-0.2-1.5l-0.2-0.9l-0.1-0.6
		c-0.1-0.5-0.1-1-0.2-1.4l-0.1-0.4l-0.1-0.4c0-0.2,0-0.5-0.1-0.7c0-0.5-0.1-1-0.1-1.5c-0.1-0.5-0.1-1.1-0.2-1.6
		c0-0.2-0.1-0.4-0.1-0.6c-0.1-0.2-0.1-0.4-0.2-0.6c-0.1-0.2-0.2-0.4-0.3-0.6c-0.1-0.2-0.3-0.3-0.4-0.4c-0.2-0.1-0.4-0.2-0.5-0.2
		c-0.1,0-0.1,0-0.2,0c-0.1,0-0.2,0.1-0.3,0.2c-0.1,0.1-0.1,0.2-0.2,0.3c-0.1,0.3-0.2,0.6-0.2,1c-0.1,0.4-0.1,0.8-0.1,1.2
		c0,0.2,0,0.4,0,0.7c0,0.3,0,0.5,0,0.8c0,0.5,0,1,0,1.5c0,0.4,0.1,0.7,0.1,1.1c0.1,0.4,0.1,0.8,0.2,1.1c0.1,0.6,0.3,1.1,0.4,1.7
		l0.1,0.4l0.1,0.4c0.1,0.3,0.1,0.5,0.2,0.8l0.2,0.7l0.1,0.5c0.1,0.3,0.2,0.6,0.2,0.9l0.1,0.3c0.1,0.5,0.2,0.8,0.2,1.2l-0.2-0.3
		l-0.3-0.4l-0.2-0.3l-0.1-0.1l-0.1-0.1c-0.1-0.1-0.1-0.2-0.2-0.3c-0.2-0.3-0.4-0.6-0.6-0.9c-0.3-0.5-0.6-1.2-0.9-1.9
		c-0.1-0.4-0.3-0.7-0.4-1.1l-0.1-0.2l-0.1-0.2l-0.1-0.2c-0.1-0.2-0.1-0.4-0.2-0.6c-0.1-0.4-0.2-0.7-0.4-1.1l-0.1-0.3l0-0.1
		c-0.1-0.3-0.2-0.5-0.2-0.7l-0.1-0.3l-0.1-0.3c-0.1-0.2-0.1-0.4-0.2-0.5c-0.1-0.3-0.2-0.7-0.3-1c-0.1-0.5-0.2-0.9-0.3-1.4
		c-0.1-0.2-0.1-0.5-0.2-0.7l0-0.1c-0.1-0.2-0.1-0.4-0.2-0.6c0-0.1-0.1-0.3-0.2-0.4l-0.1-0.2c-0.1-0.2-0.2-0.5-0.3-0.7
		c-0.2-0.3-0.4-0.6-0.7-0.9c-0.1-0.1-0.2-0.1-0.3-0.2c-0.1,0-0.1,0-0.2,0c0,0-0.1,0-0.1,0c-0.1,0-0.2,0.1-0.3,0.1
		c-0.1,0.1-0.1,0.2-0.2,0.3c-0.1,0.3-0.2,0.6-0.2,0.9c0,0.2,0,0.3,0,0.5c0,0.3,0,0.5,0,0.6c0.1,0.4,0.2,0.9,0.3,1.3
		c0.1,0.2,0.1,0.4,0.2,0.5c0.1,0.2,0.1,0.4,0.2,0.6l0.2,0.5l0,0.1l0.2,0.4l0.1,0.3l0.1,0.3l0.1,0.3l0.1,0.3l0,0.1
		c0.1,0.3,0.2,0.7,0.4,1c0.3,0.8,0.6,1.5,0.9,2.3c0.1,0.3,0.3,0.7,0.4,1c0.2,0.4,0.3,0.8,0.4,1.1c0.1,0.2,0.1,0.4,0.1,0.5
		c0,0.2,0.1,0.3,0.1,0.5v0.1c0,0.1,0,0.1,0,0.2c-0.1,0-0.2-0.1-0.2-0.1c-0.2-0.2-0.3-0.3-0.4-0.5c-0.1-0.2-0.3-0.4-0.4-0.5
		c-0.3-0.4-0.5-0.7-0.7-1.1l-0.3-0.5l-0.2-0.3c-0.2-0.4-0.4-0.8-0.6-1.1l-0.2-0.4l-0.1-0.2l-0.1-0.3l-0.1-0.2l-0.1-0.2
		c-0.2-0.4-0.4-0.8-0.6-1.2c-0.2-0.4-0.3-0.8-0.4-1.2c-0.2-0.6-0.4-1.1-0.5-1.5c-0.1-0.3-0.2-0.6-0.4-0.9l-0.2-0.4
		c-0.1-0.2-0.2-0.4-0.3-0.6l-0.2-0.4l-0.1-0.3c0-0.1-0.1-0.2-0.1-0.3c0-0.1-0.1-0.2-0.1-0.2c-0.1-0.3-0.2-0.5-0.4-0.7l-0.1-0.1
		c-0.1-0.1-0.2-0.3-0.2-0.4c-0.1-0.1-0.2-0.3-0.4-0.4c-0.1-0.1-0.3-0.2-0.4-0.3C445.9,262.1,445.8,262.1,445.6,262.1L445.6,262.1
		L445.6,262.1z"/>
	<circle fill="#FFFFFF" cx="85.2" cy="188.7" r="7.4"/>
	<circle fill="#FFFFFF" cx="471.7" cy="334.3" r="7.4"/>
</g>
<g id="Layer_3">
</g>
<g id="Layer_4">
</g>
<g id="Layer_5">
</g>
</svg>
